<?xml version="1.0" encoding="UTF-8"?>
<svg id="Layer_2" data-name="Layer 2" xmlns="http://www.w3.org/2000/svg" viewBox="0 0 77.71 77.77">
  <defs>
    <style>
      .cls-1 {
        fill: #154736;
      }
    </style>
  </defs>
  <g id="Layer_1-2" data-name="Layer 1">
    <g id="Mr9g7M.tif">
      <g>
        <path class="cls-1" d="M57.59,0c.78.37,1.69.87,2.17,1.62.21.32.57,1.52.57,1.85v54.29h13.63c.11,0,1.03.46,1.2.58,2.41,1.65,2.1,5.17-.36,6.56-.53.3-.66-.19-.6.85.14,2.5,1.22,6.12,2.24,8.42.38.86,2.18,3.04.68,3.53l-56.56.08c-1.42-.06-2.48-1.12-2.66-2.51l-2.42-32.02c-3.28.46-4.33-1.65-4.03-4.6.34-3.36,3.14-3.01,5.79-3,.53-2.81,2.52-4.7,5.3-5.27.46-.09.98.04,1.38-.07.34-.1,1.16-1.19,1.58-1.49.92-.67,2.48-1.2,3.61-1.23.5-.01,1.87.3,2.03.24.28-.1.8-.99,1.12-1.29,4.04-3.67,10.65-2.09,12.28,3.13,3.4-.15,6.55,2.52,6.6,5.99h2.1V2.98c0-1.23,1.6-2.67,2.74-2.98h1.61ZM55.17,3.15v54.37s.22.24.24.24h2.74s.24-.22.24-.24V3.47c0-1.73-2.87-2.11-3.23-.32ZM49.2,35.65c.03-1.86-1.7-3.72-3.51-3.99-.65-.1-1.83.11-2.3-.12-.35-.17-.84-1.85-1.16-2.39-1.82-3.07-6.24-3.59-8.77-1.09-.72.71-.93,2.05-2.07,1.93-1.6-.16-2.03-.93-3.97-.07-1.06.46-2.11,2.18-2.53,2.31-.55.16-1.42-.03-2.05.05-1.77.23-3.16,1.72-3.64,3.37h30.01ZM21.29,41.3v-3.47s-.22-.24-.24-.24h-6.78c-1.26,0-1.08,3.71-.32,3.71h7.34ZM23.22,37.59v14.12c0,.13.56.77.73.89,1.13.8,2.82.2,2.99-1.21.2-1.67-.32-4.25.03-5.78.23-1.02,1.75-1.08,1.91.12.34,2.63-.27,6.01-.01,8.73s3.63,2.85,3.88,0c.39-4.42-.3-9.41-.01-13.89.04-1.1,1.74-1.23,1.94-.15.17,2.29-.21,4.85,0,7.1.11,1.15.89,2.15,2.14,1.98.83-.11,1.74-.98,1.74-1.82v-9.84s-.22-.24-.24-.24h-15.08ZM53.23,37.59h-12.75v3.71h12.75v-3.71ZM21.29,52.03v-8.55s-.22-.24-.24-.24h-3.39l2.45,32.44,16.16.12c1.16-2.25,2-4.59,2.53-7.07.13-.59.69-3.23.49-3.55-.11-.18-.85-.43-1.13-.64-1.7-1.29-2-3.97-.56-5.56.22-.25,1.65-1.21,1.85-1.21h10.41l.89-14.52h-10.24v4.6c0,.09-.29,1.09-.36,1.26-.84,2.12-3.45,2.95-5.45,1.89v4.28c0,.54-.93,1.94-1.4,2.31-2.6,2.13-6.25.16-6.35-3.04-2.02,1.03-5.26-.19-5.65-2.5ZM53.23,43.24c-.43-.14-.46.63-.48.89-.38,4.08-.91,9.02-.98,13.06,0,.19,0,.38,0,.57h1.45v-14.52ZM39.96,59.73c-2.12.73-1.58,3.55.61,3.67h32.43c2.31-.14,2.58-3.27.33-3.71l-33.36.04ZM38.39,75.83h7.74v-4.6c0-.9,1.94-.9,1.94,0v4.6h4.52v-4.6c0-.9,1.94-.9,1.94,0v4.6h4.52v-4.76c0-.61,1.94-.78,1.94.16v4.6h4.52v-4.76c0-.19.76-.6,1.04-.57s.89.7.89.89v4.44h7.58c-1.43-3.32-2.51-6.85-2.74-10.49h-30.89c-.62,3.59-1.26,7.24-3,10.49Z"/>
        <path class="cls-1" d="M28.06,0c.42.34.65.48.86,1,.8,1.99.78,5.03,1.55,7.12,1.32,1.08,7.48,1.53,5.96,4.2-.55.94-5.69,2.06-5.97,2.46-.7,2.2-.78,5.02-1.52,7.16-.48,1.4-2.09,1.4-2.58,0-.74-2.14-.83-4.95-1.52-7.16-.17-.24-4.69-1.52-5.45-2-1.01-.64-.94-1.99.06-2.59.82-.49,5.15-1.66,5.39-2.07.67-2.5.92-5.12,1.76-7.56l.65-.56h.81ZM28.91,9.64l-1.33-5.12c-.33,1.71-.59,3.48-1.17,5.12l-4.8,1.9c.95.61,4.25,1.19,4.84,1.93.56.69.8,4.05,1.13,5.09l1.28-5.09c1.51-.84,3.22-1.3,4.85-1.85-.02-.22-.24-.26-.4-.33-.78-.36-4.06-1.28-4.4-1.65Z"/>
        <path class="cls-1" d="M4.79,39.56c.77-.17,4.26-.14,5.13-.04.71.08.97.33,1.05,1.05.18,1.55-.16,3.4.02,4.98.1.3.96.42,1.32.62,1.75.95,2.56,2.62,2.7,4.56.56,8.05-.44,16.74,0,24.85-.12,1.07-.73,1.8-1.73,2.14l-11.4.02c-.94-.16-1.62-.79-1.83-1.72l-.02-26.08c.17-1.42,1.19-3,2.45-3.68.38-.21,1.45-.44,1.54-.71.25-1.57-.26-3.82.03-5.3.07-.37.41-.62.76-.69ZM9.03,41.46h-3.07v4.19h3.07v-4.19ZM13.06,52.76v-2.66c0-.77-1.35-2.19-2.13-2.39-.91-.24-5.79-.24-6.76-.04-.84.18-2.25,1.41-2.25,2.27v2.82h11.13ZM13.06,68.57v-13.63s-.22-.24-.24-.24H1.93v13.87h11.13ZM1.93,75.83h10.89s.24-.22.24-.24v-4.84s-.22-.24-.24-.24H1.93v5.32Z"/>
        <path class="cls-1" d="M9.86,14.98c.18.27,4.06,1.27,4.7,1.79s.6,1.76-.15,2.25c-.8.52-4.15,1.29-4.49,1.8-.62,1.65-.59,4.27-1.3,5.8-.58,1.26-1.89,1.01-2.35-.23-.4-1.08-.81-5.1-1.27-5.67-.96-.69-4.6-1.25-4.94-2.32-.15-.48-.03-1.3.37-1.63.67-.55,4.47-1.45,4.69-1.8.33-1.1.85-5.76,1.49-6.34s1.66-.35,2.02.4c.69,1.42.76,4.34,1.23,5.95ZM11.93,17.75c-.81-.31-3.03-.78-3.55-1.37-.57-.63-.45-2.5-.88-3.31-.17,0-.46,2.85-.88,3.31-.57.64-2.74.97-3.56,1.45,0,.19,3.15,1.02,3.56,1.44.55.56.45,2.55.88,3.32.18,0,.5-2.88.88-3.32.28-.32,2.34-.9,2.91-1.13.19-.08.65-.17.65-.4Z"/>
      </g>
    </g>
  </g>
</svg>