<?xml version="1.0" encoding="UTF-8"?>
<svg id="Layer_2" data-name="Layer 2" xmlns="http://www.w3.org/2000/svg" viewBox="0 0 75.76 75.69">
  <defs>
    <style>
      .cls-1 {
        fill: #154736;
      }
    </style>
  </defs>
  <g id="Layer_1-2" data-name="Layer 1">
    <g id="ypwrcW.tif">
      <g>
        <path class="cls-1" d="M38.29,0l31.7,23.52c2.01.32,3.65-.3,5.03,1.63.83,1.16.83,3.38.68,4.79-.25,2.31-2.57,3.53-4.73,3.18l-.07,6.36c-.38,1.22-2.3.69-2.3-.08v-6.28h-8.65c-.8,0-1.32-2.03.03-2.33l12.1-.02c.42.02.87-.16,1.08-.54.24-.42.24-2.67.16-3.23-.1-.63-.62-1-1.24-.98H3.61c-1.61-.14-1.38,2.54-1.25,3.63.07.6.37.99.97,1.1h52.32c1.73.21,1.09,2.37.29,2.37H7.1v29.93c0,.8-2.17,1.44-2.37-.29v-29.64c-2.23.3-4-.67-4.73-2.81v-3.84c.48-1.34,1.56-2.6,3.04-2.8.89-.12,1.94.21,2.75-.21L37.4,0h.89ZM66.08,23.65L37.89,2.67,9.61,23.65h56.47Z"/>
        <path class="cls-1" d="M0,70.07c.54-1.9,2.02-3.59,4.08-3.83.49-.06,1.6.15,1.74.12.08-.02.68-.81.91-1.01,2.22-1.93,5.52-2,7.76-.08.24.2.9,1.07.98,1.09.15.04.81-.16,1.16-.14,3.68.13,5.7,3.88,4.06,7.11h7.69v-27.86c0-.06.36-.9.44-1.04.47-.83,1.53-1.66,2.48-1.81,1.3-.2,6.65-.23,7.94-.03,1.19.19,1.34,1.83.24,2.29l-7.76.07c-.32-.04-.97.57-.97.8v27.57h13.38c.8,0,1.44,2.17-.29,2.37H4.5c-2.32-.18-3.87-1.67-4.5-3.85v-1.77ZM10.01,66.26c-1.59.25-1.83,1.22-2.69,2.19-1.07,1.21-1.58.05-2.81.14-2.76.2-3.03,4.46.14,4.74,3.86.34,8.21-.27,12.13,0,2.17-.23,2.97-2.99,1.16-4.26-1.65-1.16-2.35.2-3.31-.08-.64-.19-.87-.99-1.25-1.42-.88-1.01-2.01-1.51-3.37-1.29Z"/>
        <path class="cls-1" d="M68.93,49.33c1.49,1.49,2.82-2.44,4.4-1.97,1.1.33,2.3,2.27,2.37,3.41.14,2.44-2.96,4.92-5.25,5.11-1.03.09-1.93-.1-2.88-.23l-3.4,3.41,10.5,10.49c2.9,3.3-1.29,7.98-4.87,5.31l-10.73-10.7c-.45.67-3.32,3-3.45,3.5-.07.27.25.77.27,1.15.11,1.48-.03,2.78-.83,4.05-1.64,2.64-4.57,4.04-7.02,1.42-2.19-2.35,1.86-3.1,1.61-4.7-.08-.52-.57-.97-1.09-1-1.6-.09-2.35,4.24-4.94,1.25-2.78-3.21.84-7.19,4.2-7.47,1.03-.08,1.89.13,2.88.23l3.4-3.41c-.3-.21-.92-1.11-1.25-1.11-.28,0-1.48,1.01-1.9,1.21-1.01.48-1.98.57-3.05.19-.94-.33-3.74-3.1-4.29-3.98-1.38-2.23-.18-3.77,1.04-5.62,0-.32-1.19-1.25-1.46-1.65-2.08-3.18,1.34-6.94,4.75-5.2.79.4,1.19,1.19,1.95,1.6,1.63-.98,2.63-2.06,4.72-1.47,1.19.33,4.48,3.57,4.88,4.72.7,1.98-.31,3.49-1.54,4.95l1.25,1.25,3.41-3.4c-.13-.96-.32-1.85-.23-2.88.19-2.31,2.66-5.39,5.11-5.25,1.14.07,3.08,1.26,3.41,2.37.47,1.58-3.46,2.91-1.97,4.4ZM45.93,44.96c-1.7.35-.85,2.47.39,2.92.27-.29,1.58-1.37,1.55-1.66-.05-.58-1.32-1.39-1.94-1.26ZM68,45.09c-1.22-.69-3.04,1.58-3.22,2.62-.09.5-.07,1.17.03,1.67.16.76.8,1.09.41,2.02l-4.32,4.4,1.55,1.55c.3,0,3.44-3.72,4.26-4.17,1.17-.65,1.38.17,2.41.31.46.06,1.09.04,1.55-.05.95-.19,2.76-1.75,2.62-2.78s-.86.2-1.23.47c-3.1,2.35-7.08-.73-5.42-4.24.35-.75,1.07-1.09,1.36-1.82ZM53.18,45.41c-.75.17-3.37,2.3-4.03,2.92-.86.82-3.39,3.7-3.7,4.73-.14.47-.1.77.16,1.18.2.32,2.91,2.96,3.16,3.05.82.26,1.6-.41,2.27-.85,1.54-1.01,3.23-2.61,4.38-4.04.43-.54,1.69-2.17,1.86-2.72.19-.62.05-.87-.3-1.34-.29-.39-2.38-2.5-2.74-2.72s-.64-.3-1.07-.2ZM56.41,54.85l-1.65,1.76,16.04,16.04c1.05,1.17,2.7.64,2.45-.97l-16.56-16.71-.28-.13ZM50.26,73.17c1.22.69,3.04-1.58,3.22-2.62.09-.5.07-1.17-.03-1.67-.16-.76-.73-.95-.41-1.87.34-.98,4.32-4.23,4.32-4.55l-1.55-1.55-4.4,4.32c-.84.42-1.46-.35-2.27-.47-.46-.06-1.09-.04-1.55.05-.98.2-3.2,2.02-2.5,3.19.69-.28,1.04-.91,1.73-1.3,3.3-1.85,6.68,1.93,4.6,5.05-.19.28-1.31,1.21-1.16,1.43Z"/>
        <path class="cls-1" d="M10.31,42.6l14.98.03c.57.24.69.61.74,1.18.41,4.46-.32,9.53,0,14.06.03.75-.51,1.29-1.26,1.26-4.53-.32-9.6.41-14.06,0-.88-.08-1.18-.38-1.26-1.26-.41-4.51.32-9.63,0-14.2.01-.51.36-.94.85-1.07ZM16.56,44.94h-4.73v4.73h4.73v-4.73ZM23.65,44.94h-4.73v4.73h4.73v-4.73ZM16.56,52.03h-4.73v4.73h4.73v-4.73ZM23.65,52.03h-4.73v4.73h4.73v-4.73Z"/>
        <path class="cls-1" d="M42.24,59.16c1.73-.38,2.03,2.01.67,2.31-1.73.38-2.03-2.01-.67-2.31Z"/>
      </g>
    </g>
  </g>
</svg>