<?xml version="1.0" encoding="UTF-8"?>
<svg id="Layer_2" data-name="Layer 2" xmlns="http://www.w3.org/2000/svg" viewBox="0 0 228.32 65.2">
  <defs>
    <style>
      .cls-1 {
        fill: #fff;
      }
    </style>
  </defs>
  <g id="Layer_1-2" data-name="Layer 1">
    <g>
      <path class="cls-1" d="M58.75,16.54c.07-.49.33-.22.49.06.61,1.07.29,4.12.46,5.43.1.76.76,1.83.9,2.64.09.12.14.05.18-.06.11-.32.53-2.69.84-2.69l.26.37c-.07,1.23-.77,2.61-.78,3.83,0,.52.24,1.33.31,1.9.09.74.1,1.49.17,2.23.13-.02.14-.15.18-.25.17-.45.55-2.12.92-2.3.32-.16.4.09.39.39-.02,1.05-1.2,3.38-1.47,4.58-.16.7-.16,1.45-.27,2.16-.15.95-.34,1.89-.52,2.83l.14.13,1.73-3.18.12-.04c.72,0-.25,1.69-.39,1.97-.64,1.23-1.54,2.45-2.1,3.72-.28.64-.47,1.36-.73,2.02-.23.58-.73,1.39-.9,1.93-.01.04-.02.13.04.12l2.82-3.07c1.02-.33.17.76-.08,1.1-1.28,1.73-3.13,3.15-4.39,4.88-.17.23-1.28,1.88-1.3,2,0,.04-.02.13.04.12.7-.48,1.43-1.28,2.13-1.72.25-.15.6-.34.89-.21-.2.36-.45.62-.75.9-1.75,1.63-3.76,2.7-5.5,4.56-.18.19-.99,1.08-1.06,1.22-.02.04-.01.13.04.12l3.26-1.69.39-.04c.3.29-1.33,1.24-1.52,1.35-.98.56-2.05.97-3.03,1.52l-3.7,2.59c-.03.17.04.12.17.09,1.1-.34,2.3-.71,3.45-.68v.23c-.7.2-1.35.53-2.04.75-1.34.42-2.92.61-4.2,1.14-.79.32-1.58.8-2.4,1.14s-1.67.62-2.51.91c-.02.14.18.07.27.08,1.35.05,2.58-.37,3.76-.36.33,0,.68.06.28.4-1.06.9-6.33.55-7.96.76-1.51.19-2.79.9-4.13,1.56-.04.18.02.13.1.17.21.14,1.11.51,1.15.73-.44.76-1.55-.4-2.07-.34-.24.03-.87.63-1.19.69-.46-.27.55-1.12.51-1.18l-2.57-1.08c-1.85-.16-3.7.37-5.52-.1-.02-.11.03-.17.12-.24.29-.22,1.66-.18,2.13-.23.11-.01.23-.05.12-.16-1.73-.38-3.27-1.28-4.91-1.89-.86-.32-5.14-1.51-5.47-2-.06-.1-.09-.16-.07-.28.95-.1,1.81.41,2.71.63.16-.16-.07-.16-.15-.23-2.13-1.98-4.19-2.77-6.61-4.15-.3-.17-1.75-1.02-1.68-1.39.12-.16.32-.14.49-.1l2.85,1.63c.34.1-.32-.61-.38-.68-.66-.68-1.55-1.54-2.25-2.19-1.34-1.24-3.45-2.38-4.64-3.69-.19-.2-.55-.78-.06-.71.58.08,1.92,1.46,2.46,1.85.06.01.05-.07.04-.12-.05-.28-.99-2.1-1.19-2.42-.79-1.24-2.23-2.65-3.16-3.91-.3-.4-1.63-2.07-1.37-2.5.27-.45,1.19,1.04,1.33,1.21.62.76,1.22,1.56,1.89,2.28.05.06.17.43.23.09-.7-1.27-1.35-2.56-1.92-3.9-.72-1.71-2.08-4.65-2.44-6.36-.08-.36-.32-1.26.36-.83l.94,2.32c-.02-1.04-.11-2.07-.08-3.11.01-.48.17-1.16.15-1.64-.04-1.49-.97-3.73-.76-5.25.03-.19.13-.54.38-.49.44.21.36,2.72.63,3.26.22-.09.14-.41.19-.63.23-.99.72-2.31.82-3.26.2-1.77-.03-3.83.26-5.63.02-.1.35-1.29.53-1.08v4.56c.16-.61.53-1.14.75-1.73.79-2.19,1.04-4.71,1.57-6.99.07-.32.42-1.91.55-2.04.37-.4.53.56.43.83l-.94,4.48.15.11c.79-1.89,1.66-3.77,2.63-5.58.32-.59,1.12-2.24,1.61-2.55.06-.04.14-.09.16,0,.08.2.1.39.06.61-.1.48-.8,1.49-1.04,2.02-.1.22-.29.56-.24.78l1.96-2.12c1.73-1.35,3.2-3.08,4.92-4.43.17-.13.66-.53.83-.59s.19.27.16.39c-.06.19-.9.98-1.11,1.18-.54.53-1.14,1.02-1.69,1.53.27.06.62-.19.87-.31.7-.35,1.93-.91,2.51-1.34,1.24-.95,2.33-2.47,3.63-3.44.41-.31,1.18-.93.86.08-.71.73-1.55,1.34-2.28,2.04-.05.05-.23.2-.16.28.08.08,1.59-1.08,1.83-1.11,1.18-.61,2.39-1.16,3.63-1.64.72-.28,2.56-1.04,3.23-1.09.52-.04.86.1.26.42-2.09,1.09-4.85,1.61-6.85,2.97-.08.05-.19.12-.21.22l9.4-3.22.24.06.57.33c-.37.08-.74.17-1.1.28-.13.04-.43.08-.47.2l5.89.47-3.58-1.96c-.23-.18.01-.46-.04-.71,1,.47,2,.95,2.99,1.45.69.35,1.43.87,2.12,1.18.78.35,1.73.54,2.55.82.74.26,1.46.62,2.2.86.04.01.13.02.12-.04-.36-.49-1.71-1.2-1.97-1.65-.16-.28-.11-.57.24-.48.24.06,1.41,1,1.69,1.23.61.49,1.35,1.33,1.98,1.71.45.27,1,.42,1.47.65.8.4,1.6.8,2.37,1.24.1.03.16-.02.12-.12-.11-.25-.96-.92-1.12-1.32-.05-.12-.17-.67.06-.61.29.09,1.67,1.63,1.97,1.96,1.45,1.65,2.7,3.47,4.16,5.11l.12-.04-1.61-3.57c-.08-.21-.09-.73.23-.63.46.15,3.87,7.66,4.33,8.63.16-.11.05-.34.03-.5-.15-1.41-.68-2.99-.78-4.33-.03-.35-.08-.64.31-.75.28.88.54,1.77.75,2.67.5,2.18.53,4.63,1.92,6.44.11-1.05-.15-2.4,0-3.42ZM39.19,4.32c-.66-.27-1.23-.73-1.94-.84-3.55-.09-7.35-1.4-10.63.49-.16.09-.38.19-.47.35,1.48-.14,2.88-.69,4.37-.85,2.71-.3,5.53.24,8.16.86.2.05.41.28.51,0ZM36.44,5.74c-1.19-.5-1.99-1.48-3.33-1.58-.9-.06-2.16-.03-3.06.09-.23.03-.57.04-.76.19,1.63.21,3.27.5,4.89.85.65.14,1.37.41,1.99.52.08.01.29.06.27-.07ZM46.18,8.09c-.71-.76-1.48-1.83-2.36-2.39-1.04-.66-2.44-1.02-3.61-1.38l.63.58c1.17.61,2.23,1.85,3.34,2.47.55.31,1.38.53,1.99.72ZM41.55,6.36c-.35-.45-1.06-.69-1.59-.88-1.24-.44-2.55-.64-3.83-.92-.04.17.08.18.18.25,1.34.97,3.66,1.07,5.24,1.56ZM24.27,4.64c-1.78.42-3.73.97-5.42,1.69-.69.29-1.15.57-1.57,1.21,2.26-1.1,4.93-1.49,6.99-2.91ZM28.67,5.11c-1.02-.05-2.16-.18-3.16.02-.59.12-1.08.49-1.62.75-.11.05-.22-.05-.17.18,1.57-.11,3.12-.49,4.67-.79.11-.02.24,0,.28-.16ZM33.77,6.13c-2.4-.57-4.77-.65-7.15.04,1.22.09,2.43-.09,3.66-.04.92.03,2.39.37,3.22.16.11-.03.24,0,.28-.16ZM42.65,7.07l-.6-.31-3.88-.71c.3.33.82.5,1.24.61.86.22,2.1.39,2.99.47.09,0,.27.09.25-.06ZM48.46,13.2c.03-.15-.08-.19-.16-.27-1.2-1.08-3.58-2.07-5.07-2.94-2.25-1.32-3.4-2.33-6.06-2.98-.67-.16-1.36-.36-2.06-.34l3.09,1.11c3.45,1.74,6.7,3.9,10.26,5.41ZM26.31,6.76c-.43-.01-.82-.03-1.22.15l-1.84,1.02c.48.01.95.02,1.41-.12l1.65-1.06ZM23.48,6.91c-.28-.1-.67-.05-.96.02-.77.17-4.02,2.32-4.7,2.92-.08.07-.2,0-.15.2l5.81-3.14ZM51.6,11.15c.12-.13-2.26-2.33-2.48-2.51-.87-.72-1.84-1.32-2.86-1.81-.02.14.08.25.16.35,1.08,1.46,2.52,2.04,3.98,3.01l1.2.96ZM31.41,6.99h-3.73c-.13,0-1.63.83-1.92.9l1.77.12c1.21-.32,2.46-.56,3.65-.91.09-.03.26,0,.24-.12ZM38.96,9.03c-.02-.12-.15-.15-.23-.2-1.04-.62-4.05-1.62-5.22-1.52-.66.06-1.42.37-2.09.46l3.47.42,4.07.84ZM20.02,7.46c-2.16.33-3.93,1.73-5.18,3.45l5.18-3.45ZM16.1,7.7c-.12-.1-2.57,1.06-2.88,1.24-1.38.81-2.64,2.26-3.64,3.51-.06.08-.45.53-.39.59.15.03.19-.08.27-.16,1.2-1,2.14-1.99,3.47-2.89,1.06-.72,2.43-1.25,3.17-2.29ZM45.12,9.47c-.4-.42-.83-1.04-1.39-1.24-.69-.25-1.75-.29-2.49-.38.75.57,1.62,1.05,2.46,1.51.6.32,1.7.98,2.29,1.16.04.01.13.02.12-.04-.34-.33-.66-.67-.99-1.02ZM56,23.53c.06-.23,0-.88,0-1.18s-.09-.92-.22-1.19c-.35-.75-2.86-4.37-3.43-4.89-1.69-1.53-5.15-2.87-7.24-3.92-1.72-.86-3.01-1.76-4.9-2.33-5.64-1.7-11.33-2.11-16.93-.12-4.44,1.58-8.89,3.57-12.33,6.83-.95.9-1.5,2.14-2.02,3.33-.63,1.46-1.2,3.04-1.48,4.61l1.15-1.96c.13-.19.28-.4.43-.57.06-.06.4-.46.47-.38,0,.16,0,.33-.02.49-.09.53-1.08,2.14-1.38,2.78-.97,2.08-1.79,4.19-1.58,6.55.02.02.1-.04.12-.08.11-.2.24-.94.33-1.24.2-.64.44-1.43.71-2.04.12-.26.33-.89.64-.53l-1.41,5.96c0,1.12.44,2.17.63,3.26.1.13.14,0,.16-.12.06-.45.03-1.01.09-1.48s.36-2.24.62-2.53c.09-.11.18-.13.32-.11.13,1.14-.18,2.28-.24,3.41-.12,2.35.05,3.93,1,6.07.04.1.04.23.18.25-.06-.75-.25-1.56-.23-2.32,0-.11.09-.87.11-.91.08-.15.29.06.35.13.24,1.13.35,2.29.58,3.42s.31,1.66,1,2.61c.83,1.14,1.91,2.27,2.82,3.34-.26-.99-.92-2.02-1.08-3.04-.15-.94.33-.34.57.06,1.05,1.74,1.67,3.9,2.99,5.57.88,1.11,4.2,2.44,5.59,3.21,2.31,1.29,4.26,2.77,6.78,3.74.46.18,1.8.69,2.23.66.48-.03,1.54-.45,2.05-.62,1.38-.47,3.51-1.19,4.75-1.85,1.03-.54,2.06-1.41,3.07-2.04,2.22-1.38,5.51-2.79,6.76-5.1.34-.63,1.74-3.99,2.03-4.18.08-.05.15-.04.24-.04.11,1.2-.72,2.19-1.02,3.3.39-.46.8-.91,1.18-1.38.32-.39,1.11-1.3,1.29-1.69.61-1.3.65-3.74,1.15-5.21.09-.28.19-.49.43-.67.05.24.12.49.12.74-.02,1.01-.39,2.21-.47,3.23,0,.06,0,.13,0,.19.07.1,1.13-1.84,1.19-1.99,1.1-2.59.04-6.11.22-8.82.02-.29.06-.86.4-.47.36.42.4,2.77.55,3.42.15-.03.14-.16.16-.27.16-1.03.4-2.59.3-3.6-.16-1.68-1.03-3.5-1.23-5.14-.03-.21-.13-.91.25-.8s1.07,2.95,1.23,3.45l.16-1.45c.27-1.74-.48-2.91-1.19-4.39-.37-.76-.92-1.63-1.24-2.38-.1-.23-.17-.49-.17-.74.36-.35,1.21,1.12,1.35,1.36.26.45.61,1.45.89,1.78.09.11.18.04.19-.04ZM48.81,11.59c-.99-1.2-1.59-2.62-3.33-2.87l3.18,3.46c.69.82,1.36,1.8,2.35,2.28.07.04.22.15.28.04-.79-1-1.67-1.92-2.48-2.9ZM23.17,8.8c-1.25-.14-2.28.55-3.32,1.11l-1.78,1.16c.14.03.24-.02.37-.06,1.18-.35,3.7-1.31,4.64-2.04.07-.05.14,0,.1-.18ZM55.3,18.7c-.41-1.64-.91-3.41-1.93-4.78-.74-1-2.49-2.35-3.54-3.06-.13-.08-.91-.62-.97-.56,1.76,2.45,4.02,4.5,5.61,7.08.23.38.41.79.64,1.17.06.1-.01.2.2.15ZM14.13,10.53c-.13-.12-2.33,1.5-2.58,1.7-1.19.94-2.59,2.27-3.58,3.41-.71.81-1.57,1.83-1.77,2.91l.79-1.14c1.34-1.76,3.31-2.82,4.91-4.21.88-.76,1.46-1.81,2.24-2.67ZM16.88,11.16c-2.1.69-4.11,2.02-5.18,4l2.96-2.34c.77-.52,1.67-.89,2.22-1.66ZM11.15,14.77c-.08-.08-1.16.76-1.29.87-.41.33-1.19,1.01-1.49,1.42-.54.75-.62,1.97-.99,2.82l.2-.15c1-1.81,2.71-3.06,3.57-4.96ZM57.02,21.21c-.15-1.42-.03-2.86-1.02-4.01.15.96.35,1.96.59,2.91.07.29.16.66.26.93.04.13-.04.21.18.17ZM6.9,19.01c-.15-.03-.19.08-.27.16-.27.3-.93.93-1.03,1.25-.3.91-.2,2.26-.35,3.22.23.04.13-.07.18-.17.71-1.44,1.09-2.91,1.47-4.46ZM58.52,25.85c.13-.03.17-.2.2-.31.19-.79.22-3.16-.06-3.88l-.85-1.62c.09,1.95.3,3.91.71,5.81ZM7.85,20.82c-.21-.05-.14.07-.2.15-1.05,1.33-1.13,2.42-1.29,4.05-.09.9-.1,1.81-.16,2.71.11.02.12-.21.13-.3.38-2.23.65-4.51,1.51-6.62ZM3.92,27.65l.46-1.85.16-3.57c-.14.02-.13.16-.18.25-.34.7-.55,1.45-.61,2.22-.06.89.12,2.01.02,2.85-.02.17.1.14.13.1ZM57.89,28.52c-.17-1.65-.19-3.43-.88-4.97-.05-.11-.08-.26-.22-.29-.02,1.69.39,3.4.93,5,.04.1.02.24.17.26ZM59.3,30.17c.16-.03.13-.17.16-.28.24-.86.87-3.06.77-3.83-.06-.49-.37-1.05-.45-1.55-.16.03-.13.16-.16.28-.19.85-.42,2.36-.47,3.22-.04.72.15,1.44.16,2.16ZM5.49,31.42c-.02-.28.13-.56.14-.82.04-1.2-.19-2.5-.14-3.77,0-.17.26-2,.12-2-.8,1.5-.7,3.19-.5,4.82.06.46.13,1.12.25,1.56.02.08.02.24.13.22ZM2.74,32.29c.14-.03.15-.15.16-.27.09-.78-.07-1.72,0-2.52l-.2-2.47c-.16,0-.52,2.53-.52,2.79.01.77.48,1.69.56,2.47ZM59.85,34.96c.9-2.19,1.23-4.64.86-6.99l-.43,1.57c-.31,1.67-.7,3.27-.59,4.99,0,.11,0,.41.16.43ZM56.79,34.33c.14-.02.13-.16.17-.26.6-1.78.7-4.05-.05-5.78-.29,1.99-.39,4.04-.12,6.05ZM4.55,34.88l.29-1.76-.84-3.66c-.23.78-.27,1.43-.16,2.24l.7,3.18ZM58.28,34.41c.08-.77.59-1.64.63-2.4.03-.57-.21-1.35-.32-1.92l-.22.91c-.1,1.05-.21,2.08-.17,3.13,0,.1-.06.29.08.27ZM3.05,38.57c-.29-1.98.06-3.98-.9-5.81-.17.1-.07.18-.07.29.05,1.66.18,3.81.79,5.35.05.12-.05.21.18.17ZM5.49,37.47c.3-.28.12-.95.16-1.37.06-.8.23-1.59.23-2.4-.22.21-.32.66-.41.96-.11.35-.34,1.13-.35,1.46-.02.45.3.92.37,1.35ZM58.83,36.49c.03-.42,0-.91,0-1.34,0-.09.16-.34.08-.51-.08,0-.11.07-.14.14-.31.72-.81,2.66-.99,3.49-.09.42-.1.86-.21,1.28.14.17.12.02.17-.07.4-.87,1.02-2.06,1.09-2.99ZM57.5,36.1c.05-.38-.03-.83,0-1.22l-1.89,5.14.46-.56c.41-.71,1.33-2.6,1.43-3.36ZM3.76,34.96s-.21-.02-.16.12c.09,1.47.03,3.21.39,4.64.03.11,0,.25.16.28l.11-3.31c-.11-.23-.44-1.64-.51-1.72ZM60.56,35.43c-.2-.04-.14.04-.2.15-.24.45-.66,1.34-.77,1.82-.23.95-.22,2.15-.29,3.13l.39-.75.87-4.35ZM55.69,37.79l.39-2.28c-.15.03-.13.16-.16.27-.12.42-.25,1.22-.3,1.66,0,.09-.08.36.07.34ZM6.59,36.14c-.11-.13-.14.01-.16.12-.1.82-.13,2.08.02,2.89.05.3.5,1.05.68,1.37.3.54.66,1.11,1.03,1.6l-1.57-5.97ZM6.51,43.76c-.6-1.82-.35-3.94-1.57-5.5.11,1.07-.29,2.51-.05,3.54.1.41,1.03,1.57,1.38,1.84.08.06.1.15.24.12ZM55.45,46.19c.61-.56,1.27-1.32,1.71-2.02.9-1.39,1.19-3.45,1.51-5.05l-1.82,3.56-1.4,3.51ZM54.51,44.23c.14-.07.25-.2.35-.32.59-.72,1.52-2.07,1.77-2.95.12-.41.18-.87.24-1.29l-1.92,2.99-.44,1.56ZM10.75,47.92l-1.62-2.74-2.15-3.07c.27,1.41.67,3.02,1.69,4.09.32.34.94.91,1.3,1.22.09.08.72.58.79.51ZM7.92,47.45c-.42-1.49-1.46-2.61-2.59-3.61.37,1.48,1.44,2.67,2.59,3.61ZM51.68,47.53c.91-.95,1.65-1.93,1.81-3.3l-1.6,2.44-.2.86ZM55.14,44.86c-.15-.04-.19.08-.27.16-.81.84-1.42,1.61-1.87,2.69-.06.14-.35.86-.3.92,1.32-.81,1.76-2.46,2.43-3.77ZM13.85,49.46c-1.1-1.18-2.12-2.44-3.17-3.66.13.52.43,1.07.69,1.55.63,1.16,1.31,2.25,2.39,3.03.63.46,1.35.83,2.06,1.16.17-.13,0-.13-.06-.18-.65-.61-1.3-1.24-1.91-1.89ZM52.15,51.53c.15.03.19-.08.27-.16,1.28-1.06,2.54-2.61,3.53-3.93l.91-1.57c-1.76,1.76-3.83,3.22-4.71,5.66ZM51.37,47.37l-3.38,3.69c.16.04.21-.05.32-.11.58-.37,2.67-2.39,2.92-2.97.08-.18.09-.41.14-.61ZM9.01,47.55l-.22.02c.64,1.48,1.93,2.53,3.15,3.53.53.44,1.17.95,1.73,1.33.08.05.31.27.38.21l-1.65-2.16-3.4-2.92ZM7.37,48c-.34-.3.06.51.1.57.73,1.27,1.81,2.19,2.97,3.04l-1.1-1.59c-.53-.67-1.27-1.19-1.85-1.79-.08-.08-.1-.23-.11-.24ZM51.29,49.33l-2.68,2.15c-1.18.85-2.54,1.46-3.37,2.72,1.2-.22,2.26-.87,3.18-1.65.61-.52,1.52-1.36,2.05-1.96.14-.16.95-1.12.82-1.26ZM51.68,50.67c-.15-.03-.19.08-.28.16-.69.58-1.32,1.3-2,1.88,1.07-.28,1.68-1.18,2.28-2.04ZM17.56,53.45c-.56-.44-1.61-.95-2.27-1.3-.12-.07-.77-.44-.84-.38l.55.82c.83.99,1.79,1.87,2.93,2.49.42.23,1.32.67,1.76.76.15.03.15-.09.1-.14,0-.01-.13-.02-.19-.08-.69-.64-1.35-1.63-2.04-2.17ZM17.59,56.17c-1.47-1.33-3.22-2.26-4.87-3.34-.39-.26-.78-.7-1.26-.82-.08.06,1.06,1.51,1.18,1.61.47.39,1.61.95,2.19,1.26.89.48,1.81.92,2.75,1.29ZM51.92,52.48c-.15-.14-.92.75-1.06.86l-1.06,1.41c.17.14.98-.82,1.14-.94l.98-1.34ZM45.24,52.95l-4.63,2.91c.7-.34,1.71-.38,2.38-.72.43-.22,1.75-1.5,2.1-1.91.07-.09.19-.13.16-.27ZM50.03,53.18c-1.5.62-2.97,1.38-4.01,2.67,1-.37,2.13-.61,2.91-1.37.38-.37.74-.9,1.1-1.3ZM25.37,57.5c-.89-.68-1.88-1.26-2.85-1.82s-2.01-1.17-3.04-1.56c.57.73,1.28,1.38,2.01,1.96.25.2.64.54.91.66.83.38,2.09.46,2.98.75ZM18.92,57.66l-5.81-3.06c-.09.08.32.44.39.51,1.36,1.26,3.71,1.91,5.42,2.55ZM39.58,58.76c1.96-.58,3.82-1.76,5.38-3.06.11-.09.85-.67.75-.78-.66.34-1.43.56-2.07.96s-1.33,1.08-1.99,1.54c-.61.42-1.25.74-1.85,1.14-.08.05-.2.1-.22.21ZM47.83,56.17c-1.36.44-2.75.87-4.04,1.5-.49.24-1.57.8-1.96,1.1-.09.07-.16.08-.13.22.34-.12.69-.05,1.04-.1,1.92-.29,3.58-1.6,5.09-2.73ZM23.64,58.53c-1.49-1-3.19-1.58-4.87-2.2.72.47,1.53,1.23,2.3,1.59.56.26,1.78.63,2.39.76.17.03.2.05.18-.14ZM41.39,56.48l-7.86,2.67c1.4,0,3.14-.04,4.48-.51,1.04-.36,2.3-1.34,3.22-1.97.03-.02.31-.07.16-.19ZM23.01,60.25c-.89-.27-1.61-.96-2.46-1.35-1.22-.56-2.61-.82-3.82-1.4.99.78,2.05,1.52,3.17,2.14.89.19,1.9.55,2.79.67.09.01.34.1.33-.06ZM35.97,60.02c-1.44,0-2.84.05-4.27-.17-2.39-.36-4.72-1.31-7.12-1.64,1.3,1.22,3.21,1.46,4.92,1.72,2.02.3,3.91.41,5.95.24.1,0,.48-.04.52-.15ZM27.09,60.49c-.11-.21-.42-.28-.63-.35-1.01-.33-2.26-.51-3.3-.74l1.87,1.15c.74.27,1.32.12,2.06-.06ZM41.63,59.78c-.32-.08-.71.08-.99.08-.4,0-.88-.18-1.31-.06l-5.16,1.94c2.22-.24,4.55-.67,6.62-1.51.28-.11.67-.21.84-.45ZM33.14,61.12c-1.95,0-3.82-.7-5.74.04,1.78.42,3.75,1,5.5.16.09-.04.22-.08.24-.2ZM26.31,61.9c-1.09-.54-2.3-.64-3.46-.94.02.14.16.14.25.18.71.3,2.18.75,2.94.83.09,0,.28.07.26-.07ZM29.06,62.61c-.03.15.05.15.13.22.18.16,1.44.79,1.64.79l1.69-1.06c-.07-.11-.15-.11-.27-.12-1.05-.11-2.13.24-3.19.16Z"/>
      <g>
        <path class="cls-1" d="M49.9,19.14c.06.07.07.15.08.23.13.92.05,1.96.07,2.89.25,8.72-.08,17.13-5.86,24.14-2.74,3.32-6.75,6.36-10.63,8.22-.4.19-1.68.81-2.04.79-.31-.01-1.56-.6-1.92-.77-7.59-3.56-13.73-9.93-15.66-18.23-1.15-4.92-1.29-11.52-.88-16.56.06-.77.29-.78.92-1.13,3.89-2.22,9.27-4.1,13.61-5.24.98-.26,3.01-.86,3.94-.87.57,0,1.75.32,2.36.46,4.85,1.08,10.78,3.07,15.11,5.51.16.09.82.46.9.55ZM14.91,20.33c-.22,8.15-.55,16.83,4.45,23.73,2.99,4.13,7.54,7.4,12.17,9.44,5.15-2.18,10.1-5.93,13.05-10.73,3.42-5.58,3.75-12.42,3.64-18.81-.02-1.22.03-2.43-.1-3.64-4.09-2.13-8.54-3.82-13.01-4.99-.83-.22-2.83-.8-3.58-.8-.86,0-3.07.68-4,.94-4.35,1.21-8.56,2.91-12.61,4.86Z"/>
        <path class="cls-1" d="M39.12,32.04c-.15-.18-.12.19-.12.24.12,2.19.13,4.38.19,6.57.02.82.17,1.71.07,2.54-.08.7-1.2.6-1.33.05-.15-.64-.18-1.82-.23-2.53-.07-.97-.03-1.96-.14-2.93l-.69,2.1c-.12.87-.05,1.8-.16,2.66-.09.72-.13,1.23-1.02,1.09-.71-.11-.4-1.05-.39-1.51.02-.79-.01-1.69.08-2.47.13-1.12.97-2.63.98-3.61,0-.61-.09-1.54-.14-2.18,0-.08-.08-.53-.11-.53-.66,1.44-1.97,1.81-3.41,2.06-.13.97-.26,1.95-.36,2.92-.17,1.62-.2,3.34-.43,4.93-.04.25-.14.68-.49.44-.11-.08-.07-.62-.06-.78.09-2.33.58-4.82.64-7.13,0-.41-.22-.81.06-1.2.26-.36,1.62-.6,2.05-.92.3-.22.99-1.46,1.38-1.87.75-.8,2.27-1.5,3.28-.81,1.13.78,1.9,4.27,1.77,5.58-.07.69-.55.87-.97.33l-.44-3.05Z"/>
        <path class="cls-1" d="M45.17,28.07c-.07.07-.27.1-.37.09l-13.29-8.6c-4.42,2.76-8.75,5.68-13.13,8.52-.66.32-.66-.57-.6-1.02.04-.33.55-.55.81-.74,4.15-2.84,8.5-5.4,12.65-8.25l.27-.08,13.56,8.76c.28.11.22,1.2.09,1.32Z"/>
        <path class="cls-1" d="M27.88,42.23c1.14-.01,2.29.11,3.44.05.14,0,.2.1.18.24-1.13,2.28-2.38,4.52-3.69,6.7-.11.18-.57,1.03-.72,1.04-.23,0-2.38-1.61-2.71-1.88l-1.7-1.47,3.63-4.56c.48-.07,1.08-.11,1.58-.12Z"/>
        <path class="cls-1" d="M24.86,33.52c.65.19,1.37,0,2.01,0,1.14-.02,1.03,1.06.5,1.06h-2.44v1.13h2.44c.07,0,.48.28.52.4l1.63,3.38c.22.22.8-.04.9.44.23,1.01-1.12,1.21-1.85,1.07-.12-.02-.18-.08-.25-.17l-1.55-3.32c-.19-.13-3.07.03-3.63-.04-.5-.06-.93-.43-1.05-.92-.14-.59-.13-3.72-.05-4.4.15-1.19,1.9-1.57,2.58-.52.09.14.25.66.25.81v1.09Z"/>
        <path class="cls-1" d="M21.31,34.21c-.06.07-.63.28-.78.38-2.45,1.6-1.91,5.65,1.01,6.38,1.5.38,3.23-.4,3.94-1.78.21-.4.23-1.25.84-.96.64.3-.25,1.8-.55,2.17-2.78,3.47-8.14,1.22-7.76-3.25.11-1.37,1.39-3.49,2.87-3.63.44-.04.67.4.43.68Z"/>
        <path class="cls-1" d="M41.02,40.16c.15-.55.47-.88.99-1.11l.28-10.3c-.04-.34.37-.55.57-.29.19.25,0,1.67,0,2.05-.08,2.71-.17,5.41-.21,8.13,0,.21-.16.36.03.53.12.11.29.12.42.28.05.06.32.63.32.67-.02.24-.91.04-1.09.03-.44-.01-.87.02-1.31,0Z"/>
        <path class="cls-1" d="M23.78,27.68c1.82-.18,2.18,2.69.4,2.94-2.12.3-2.32-2.75-.4-2.94Z"/>
        <path class="cls-1" d="M36.27,25.77c2.48-.46,2.39,3.25.14,2.86-1.54-.26-1.54-2.6-.14-2.86Z"/>
        <path class="cls-1" d="M43.92,41.99c-.73.11-.6-.17-.81-.71-.15,0,.17.65.11.71h-.64s-.03-.64-.03-.64c-.06,0-.07.6-.11.63-.02.02-.56.02-.64-.03-.15-.1.07-.51,0-.67-.15.05-.17.59-.22.63-.06.05-.5-.02-.63,0l.18-.78c-.28.53-.15.97-.95.74l.78-1.48c.4-.03,2.31-.13,2.51.11.11.12.35,1.24.46,1.48Z"/>
      </g>
    </g>
    <g>
      <path class="cls-1" d="M89.6,17.39h3.36v15.99h-3.72v-10.01l-4.71,5.76h-.73l-4.75-5.78v10.03h-3.72v-15.99h3.36l5.46,6.81,5.46-6.81Z"/>
      <path class="cls-1" d="M103.76,22.09h3.88l-7.04,16.17h-3.82l2.19-5.05-4.39-11.13h3.86l1.3,3.56,1.23,3.68,1.33-3.68,1.44-3.56Z"/>
      <path class="cls-1" d="M119.93,17.39h3.72v15.99h-3.36l-7.24-9.89.05,4.32v5.57h-3.72v-15.99h3.36l7.24,9.94-.05-4.27v-5.67Z"/>
      <path class="cls-1" d="M135.1,22.54c.9.46,1.59,1.12,2.07,1.96.48.85.72,1.83.72,2.96,0,.37-.04.81-.11,1.35h-8.29c.11.58.42,1.05.94,1.4.52.36,1.18.54,1.99.54.56,0,1.11-.08,1.65-.25.53-.17.99-.4,1.37-.71l1.87,2.01c-.64.59-1.4,1.05-2.27,1.37-.88.32-1.81.48-2.8.48-1.31,0-2.44-.24-3.4-.72s-1.7-1.16-2.22-2.04c-.52-.88-.78-1.93-.78-3.13s.25-2.19.77-3.08c.51-.9,1.22-1.6,2.14-2.09.91-.49,1.97-.74,3.18-.74s2.3.23,3.2.7ZM130.27,25.22c-.45.37-.7.88-.77,1.53h4.98c-.05-.65-.29-1.17-.72-1.53-.43-.37-1.02-.55-1.75-.55s-1.3.18-1.75.55Z"/>
      <path class="cls-1" d="M139.05,32.17l1.37-2.47c.55.33,1.18.59,1.91.78.72.18,1.44.27,2.16.27.99,0,1.48-.27,1.48-.8,0-.27-.14-.48-.41-.62s-.73-.23-1.37-.27c-1.43-.08-2.57-.43-3.42-1.07-.84-.64-1.27-1.48-1.27-2.51,0-1.13.46-2.02,1.37-2.68.91-.66,2.15-.99,3.7-.99.88,0,1.72.11,2.52.32s1.49.51,2.07.89l-1.39,2.4c-.85-.49-1.87-.73-3.04-.73s-1.74.27-1.74.82c0,.23.12.4.35.53.24.12.64.21,1.2.27,1.61.12,2.84.49,3.69,1.1.84.61,1.27,1.46,1.27,2.56,0,1.16-.46,2.07-1.39,2.73s-2.22.99-3.86.99c-2,0-3.73-.5-5.21-1.51Z"/>
      <path class="cls-1" d="M159.52,32.94c-.88.44-1.88.66-2.99.66-1.23,0-2.21-.35-2.92-1.04-.72-.69-1.07-1.81-1.07-3.35v-4.27h-1.92v-2.86h1.92v-2.81l3.56-.39v3.2h2.81v2.86h-2.81v4.27c0,.46.11.8.34,1.02s.54.33.94.33c.44,0,.88-.11,1.3-.32l.84,2.7Z"/>
      <path class="cls-1" d="M163.65,33.15c-1.21-.4-2.26-.95-3.14-1.67l1.94-2.72c1.42,1.11,3.07,1.67,4.96,1.67.94,0,1.69-.16,2.25-.48s.83-.75.83-1.3c0-.52-.26-.92-.78-1.21-.52-.29-1.34-.49-2.47-.62-2.18-.24-3.77-.75-4.79-1.53-1.01-.78-1.52-1.89-1.52-3.34,0-.97.27-1.83.82-2.58.55-.75,1.32-1.32,2.31-1.74.99-.41,2.13-.62,3.43-.62,1.11,0,2.2.16,3.25.48s1.99.77,2.8,1.35l-1.76,2.63c-1.25-.87-2.63-1.3-4.13-1.3-.93,0-1.67.15-2.23.46-.56.3-.83.72-.83,1.23s.24.89.72,1.17c.48.27,1.28.48,2.41.62,2.16.24,3.78.78,4.84,1.61,1.07.83,1.6,1.97,1.6,3.42,0,1.01-.28,1.89-.84,2.66s-1.36,1.36-2.38,1.78c-1.02.42-2.19.63-3.52.63s-2.57-.2-3.78-.59Z"/>
      <path class="cls-1" d="M186.51,23.23c.82.93,1.22,2.19,1.22,3.77v12.36h-3.59v-12.16c0-.73-.18-1.3-.54-1.71-.36-.41-.86-.62-1.5-.62-.7,0-1.27.24-1.7.71-.43.47-.65,1.09-.65,1.85v12.21h-3.59V8.4h3.59v14.93c.87-.99,2.02-1.48,3.45-1.48s2.49.46,3.3,1.39Z"/>
      <path class="cls-1" d="M190.58,20.42c-.39-.37-.58-.83-.58-1.39s.2-1.05.59-1.42c.4-.37.9-.55,1.51-.55s1.11.18,1.51.55c.4.37.59.84.59,1.42s-.19,1.03-.58,1.39c-.39.37-.9.55-1.52.55s-1.13-.18-1.52-.55ZM190.29,22.09h3.59v11.29h-3.59v-11.29Z"/>
      <path class="cls-1" d="M205.21,22.54c.9.46,1.59,1.12,2.07,1.96.48.85.72,1.83.72,2.96,0,.37-.04.81-.11,1.35h-8.29c.11.58.42,1.05.94,1.4.52.36,1.18.54,1.99.54.56,0,1.11-.08,1.65-.25.53-.17.99-.4,1.37-.71l1.87,2.01c-.64.59-1.4,1.05-2.27,1.37-.88.32-1.81.48-2.8.48-1.31,0-2.44-.24-3.4-.72s-1.7-1.16-2.22-2.04c-.52-.88-.78-1.93-.78-3.13s.25-2.19.77-3.08c.51-.9,1.22-1.6,2.14-2.09.91-.49,1.97-.74,3.18-.74s2.3.23,3.2.7ZM200.38,25.22c-.45.37-.7.88-.77,1.53h4.98c-.05-.65-.29-1.17-.72-1.53-.43-.37-1.02-.55-1.75-.55s-1.3.18-1.75.55Z"/>
      <path class="cls-1" d="M209.99,17.39h3.59v15.99h-3.59v-15.99Z"/>
      <path class="cls-1" d="M228.1,17.39v15.99h-3.11l-.23-1.35c-.96,1.05-2.21,1.58-3.75,1.58-1.05,0-1.98-.25-2.8-.74-.81-.49-1.45-1.19-1.91-2.08-.46-.89-.69-1.91-.69-3.05s.23-2.16.69-3.05,1.09-1.58,1.91-2.08,1.75-.74,2.8-.74c1.39,0,2.55.43,3.5,1.3v-5.78h3.59ZM223.81,29.8c.5-.53.75-1.21.75-2.07s-.25-1.54-.75-2.07c-.5-.53-1.15-.79-1.94-.79s-1.44.27-1.93.8c-.5.53-.74,1.22-.74,2.06s.25,1.52.74,2.06c.49.53,1.14.8,1.93.8s1.44-.26,1.94-.79Z"/>
    </g>
    <g>
      <path class="cls-1" d="M79.56,47.2v-2.48h-3.15v2.48h-.95v-5.96h.95v2.6h3.15v-2.6h.94v5.96h-.94Z"/>
      <path class="cls-1" d="M87.73,44.24c0,1.61-.98,3.08-3.05,3.08s-3.05-1.51-3.05-3.07c0-1.81,1.27-3.12,3.07-3.12,2.04,0,3.03,1.51,3.03,3.12ZM84.68,46.45c1.48,0,2.1-1.05,2.1-2.19s-.63-2.24-2.09-2.26c-1.38,0-2.12.96-2.12,2.26.02,1.06.63,2.19,2.1,2.19Z"/>
      <path class="cls-1" d="M94.04,42.63l-2.03,2.82h-.2l-2-2.82v4.57h-.95v-5.96h1.11l1.97,2.79,1.96-2.79h1.11v5.96h-.95v-4.57Z"/>
      <path class="cls-1" d="M100.89,47.2h-4.4v-5.96h4.38v.93h-3.42v1.61h3.29v.89h-3.29v1.6h3.45v.94Z"/>
      <path class="cls-1" d="M109.42,42.63l-2.03,2.82h-.2l-2-2.82v4.57h-.95v-5.96h1.11l1.97,2.79,1.96-2.79h1.11v5.96h-.95v-4.57Z"/>
      <path class="cls-1" d="M117.59,44.24c0,1.61-.98,3.08-3.05,3.08s-3.05-1.51-3.05-3.07c0-1.81,1.27-3.12,3.07-3.12,2.04,0,3.03,1.51,3.03,3.12ZM114.54,46.45c1.48,0,2.1-1.05,2.1-2.19s-.63-2.24-2.09-2.26c-1.38,0-2.12.96-2.12,2.26.02,1.06.63,2.19,2.1,2.19Z"/>
      <path class="cls-1" d="M120.98,41.24c2.04,0,2.96,1.46,2.99,2.93.03,1.51-.9,3.03-2.99,3.03h-2.26v-5.96h2.26ZM119.66,46.28h1.31c1.46,0,2.07-1.07,2.04-2.12-.03-1-.64-2.01-2.04-2.01h-1.31v4.13Z"/>
      <path class="cls-1" d="M125.1,47.2v-5.96h.95v5.96h-.95Z"/>
      <path class="cls-1" d="M127.54,47.2v-5.95h4.21v.93h-3.26v1.81h3.1v.89h-3.1v2.32h-.95Z"/>
      <path class="cls-1" d="M132.87,47.2v-5.96h.95v5.96h-.95Z"/>
      <path class="cls-1" d="M140.33,46.43c-.61.6-1.41.89-2.24.89-2.16,0-3.13-1.49-3.14-3.06,0-1.57,1.01-3.12,3.14-3.12.8,0,1.58.3,2.18.9l-.64.61c-.43-.42-.99-.61-1.54-.61-1.52,0-2.21,1.12-2.2,2.21,0,1.09.66,2.17,2.2,2.17.55,0,1.17-.23,1.58-.65l.66.66Z"/>
      <path class="cls-1" d="M145.42,45.95h-3.23l-.56,1.25h-1.01l2.67-5.96h1.04l2.67,5.96h-1.01l-.57-1.25ZM143.81,42.24l-1.26,2.84h2.52l-1.26-2.84Z"/>
      <path class="cls-1" d="M148.64,42.1h-1.96v-.86h4.87v.86h-1.95v5.1h-.96v-5.1Z"/>
      <path class="cls-1" d="M152.45,47.2v-5.96h.95v5.96h-.95Z"/>
      <path class="cls-1" d="M160.62,44.24c0,1.61-.98,3.08-3.05,3.08s-3.05-1.51-3.05-3.07c0-1.81,1.27-3.12,3.07-3.12,2.04,0,3.03,1.51,3.03,3.12ZM157.57,46.45c1.48,0,2.1-1.05,2.1-2.19s-.63-2.24-2.09-2.26c-1.38,0-2.12.96-2.12,2.26.02,1.06.63,2.19,2.1,2.19Z"/>
      <path class="cls-1" d="M165.86,45.48v-4.24h.95v5.96h-.72l-3.38-4.21v4.21h-.96v-5.96h.73l3.38,4.24Z"/>
      <path class="cls-1" d="M171.87,42.56c-.28-.41-.85-.66-1.47-.66-.8,0-1.38.33-1.38.9s.66.74,1.45.85c1.23.17,2.39.51,2.39,1.85,0,1.34-1.23,1.84-2.47,1.84-1.14,0-2.02-.35-2.56-1.35l.72-.48c.43.72,1.17.98,1.86.98s1.51-.24,1.51-.99c0-.65-.69-.87-1.52-.98-1.18-.16-2.31-.46-2.31-1.74,0-1.23,1.23-1.71,2.3-1.71.86,0,1.72.2,2.22,1l-.72.49Z"/>
      <path class="cls-1" d="M189.53,46.43c-.61.6-1.41.89-2.24.89-2.16,0-3.13-1.49-3.14-3.06,0-1.57,1.01-3.12,3.14-3.12.8,0,1.58.3,2.18.9l-.64.61c-.43-.42-.99-.61-1.54-.61-1.52,0-2.21,1.12-2.2,2.21,0,1.09.66,2.17,2.2,2.17.55,0,1.17-.23,1.58-.65l.66.66Z"/>
      <path class="cls-1" d="M191.45,41.24v5.07h3.14v.89h-4.1v-5.96h.95Z"/>
      <path class="cls-1" d="M199.89,47.2h-4.4v-5.96h4.38v.93h-3.42v1.61h3.29v.89h-3.29v1.6h3.45v.94Z"/>
      <path class="cls-1" d="M205.24,45.95h-3.23l-.56,1.25h-1.01l2.67-5.96h1.04l2.67,5.96h-1.01l-.57-1.25ZM203.63,42.24l-1.26,2.84h2.52l-1.26-2.84Z"/>
      <path class="cls-1" d="M211.76,45.48v-4.24h.95v5.96h-.72l-3.38-4.21v4.21h-.96v-5.96h.73l3.38,4.24Z"/>
      <path class="cls-1" d="M214.21,47.2v-5.96h.95v5.96h-.95Z"/>
      <path class="cls-1" d="M220.76,45.48v-4.24h.95v5.96h-.72l-3.38-4.21v4.21h-.96v-5.96h.73l3.38,4.24Z"/>
      <path class="cls-1" d="M227.58,42.61c-.43-.42-1.06-.64-1.61-.64-1.4,0-2.21,1.05-2.2,2.31,0,1.09.65,2.15,2.2,2.15.51,0,.98-.13,1.46-.53v-1.21h-1.66v-.85h2.54v2.44c-.6.66-1.34,1.04-2.34,1.04-2.19,0-3.13-1.46-3.13-3.04,0-1.72,1.1-3.18,3.13-3.18.79,0,1.59.3,2.21.9l-.6.61Z"/>
    </g>
    <circle class="cls-1" cx="178.02" cy="44.65" r="2.6"/>
  </g>
</svg>