<?xml version="1.0" encoding="UTF-8"?>
<svg id="Layer_2" data-name="Layer 2" xmlns="http://www.w3.org/2000/svg" viewBox="0 0 209.73 42.49">
  <defs>
    <style>
      .cls-1 {
        fill: #fff;
      }
    </style>
  </defs>
  <g id="Layer_1-2" data-name="Layer 1">
    <g>
      <path class="cls-1" d="M38.29,10.78c.05-.32.22-.14.32.04.4.7.19,2.68.3,3.54.07.49.49,1.19.58,1.72.06.08.09.03.12-.04.07-.21.35-1.75.55-1.75l.17.24c-.05.8-.5,1.7-.51,2.5,0,.34.16.86.2,1.24.06.48.06.97.11,1.45.09-.01.09-.1.12-.16.11-.29.36-1.38.6-1.5.21-.1.26.06.26.25-.01.68-.78,2.2-.96,2.98-.1.46-.1.95-.18,1.41-.1.62-.22,1.23-.34,1.85l.09.08,1.13-2.08.08-.03c.47,0-.16,1.1-.25,1.28-.42.8-1,1.6-1.37,2.42-.18.42-.31.89-.48,1.31-.15.38-.48.91-.59,1.26,0,.03-.01.08.02.08l1.84-2c.67-.22.11.49-.05.72-.84,1.13-2.04,2.05-2.86,3.18-.11.15-.83,1.22-.85,1.3,0,.03-.01.08.03.08.46-.31.93-.84,1.39-1.12.16-.1.39-.22.58-.14-.13.23-.29.41-.49.59-1.14,1.06-2.45,1.76-3.58,2.97-.11.12-.65.7-.69.79-.01.03,0,.09.02.08l2.12-1.1.26-.02c.2.19-.87.81-.99.88-.64.37-1.33.64-1.98.99l-2.41,1.69c-.02.11.03.08.11.06.71-.22,1.5-.46,2.25-.44v.15c-.46.13-.88.35-1.33.49-.87.27-1.9.4-2.74.74-.51.21-1.03.52-1.56.74s-1.09.4-1.64.59c-.01.09.12.05.18.05.88.03,1.68-.24,2.45-.24.21,0,.44.04.18.26-.69.59-4.13.36-5.19.5-.98.13-1.82.59-2.69,1.02-.03.12.02.08.07.11.14.09.72.33.75.48-.29.5-1.01-.26-1.35-.22-.15.02-.57.41-.78.45-.3-.18.36-.73.33-.77l-1.68-.71c-1.2-.1-2.41.24-3.6-.06-.01-.07.02-.11.07-.15.19-.14,1.08-.12,1.39-.15.07,0,.15-.03.08-.1-1.13-.25-2.13-.83-3.2-1.23-.56-.21-3.35-.98-3.56-1.3-.04-.06-.06-.1-.05-.18.62-.07,1.18.27,1.77.41.11-.11-.05-.1-.1-.15-1.39-1.29-2.73-1.81-4.31-2.71-.2-.11-1.14-.66-1.09-.9.08-.11.21-.09.32-.07l1.86,1.06c.22.07-.21-.4-.25-.44-.43-.44-1.01-1.01-1.47-1.43-.88-.81-2.25-1.55-3.02-2.4-.12-.13-.36-.51-.04-.46.38.05,1.25.95,1.61,1.2.04,0,.03-.05.03-.08-.03-.18-.65-1.37-.78-1.58-.52-.81-1.45-1.73-2.06-2.55-.19-.26-1.06-1.35-.9-1.63.18-.29.78.68.87.79.4.5.8,1.02,1.23,1.49.03.04.11.28.15.06-.46-.83-.88-1.67-1.25-2.54-.47-1.11-1.35-3.03-1.59-4.14-.05-.23-.21-.82.23-.54l.61,1.51c-.01-.68-.07-1.35-.05-2.02,0-.32.11-.76.1-1.07-.03-.97-.63-2.43-.49-3.42.02-.13.09-.35.25-.32.29.14.23,1.77.41,2.13.15-.06.09-.27.12-.41.15-.64.47-1.51.53-2.13.13-1.15-.02-2.49.17-3.67.01-.06.23-.84.35-.7v2.97c.1-.4.35-.74.49-1.13.52-1.43.68-3.07,1.02-4.56.05-.21.28-1.24.36-1.33.24-.26.35.36.28.54l-.61,2.92.1.07c.51-1.23,1.08-2.46,1.71-3.64.21-.38.73-1.46,1.05-1.66.04-.02.09-.06.1,0,.05.13.07.25.04.4-.06.31-.52.97-.68,1.32-.06.14-.19.37-.15.51l1.28-1.38c1.13-.88,2.09-2.01,3.21-2.88.11-.09.43-.34.54-.38s.12.18.1.25c-.04.13-.59.64-.72.77-.35.34-.74.66-1.1,1,.17.04.4-.12.56-.2.45-.23,1.26-.59,1.63-.88.81-.62,1.52-1.61,2.36-2.24.27-.2.77-.6.56.05-.46.48-1.01.87-1.49,1.33-.04.03-.15.13-.1.18.05.05,1.04-.7,1.19-.73.77-.4,1.56-.75,2.36-1.07.47-.18,1.67-.67,2.11-.71.34-.03.56.07.17.27-1.36.71-3.16,1.05-4.47,1.93-.05.04-.12.08-.14.14l6.12-2.1.16.04.37.22c-.24.05-.48.11-.72.18-.08.03-.28.05-.31.13l3.84.31-2.33-1.28c-.15-.12,0-.3-.02-.46.65.31,1.3.62,1.95.95.45.23.93.57,1.38.77.51.23,1.13.35,1.66.54.48.17.95.41,1.43.56.03,0,.08.01.08-.02-.24-.32-1.11-.78-1.28-1.07-.1-.18-.07-.37.16-.31.16.04.92.65,1.1.8.4.32.88.87,1.29,1.12.29.18.65.27.96.43.52.26,1.04.52,1.54.81.06.02.1-.01.08-.08-.07-.16-.63-.6-.73-.86-.03-.08-.11-.44.04-.4.19.06,1.09,1.06,1.28,1.28.94,1.07,1.76,2.26,2.71,3.33l.08-.03-1.05-2.33c-.05-.14-.06-.48.15-.41.3.1,2.52,4.99,2.82,5.63.1-.07.03-.22.02-.33-.1-.92-.44-1.95-.51-2.82-.02-.23-.05-.42.2-.49.18.57.35,1.15.49,1.74.33,1.42.34,3.01,1.25,4.2.07-.69-.1-1.56,0-2.23ZM25.54,2.82c-.43-.17-.8-.47-1.27-.55-2.31-.06-4.79-.91-6.92.32-.1.06-.25.12-.31.23.96-.09,1.88-.45,2.85-.56,1.76-.19,3.6.16,5.32.56.13.03.27.19.34,0ZM23.75,3.74c-.78-.32-1.3-.97-2.17-1.03-.59-.04-1.41-.02-1.99.06-.15.02-.37.03-.49.12,1.06.14,2.13.33,3.18.55.43.09.89.27,1.3.34.05,0,.19.04.17-.05ZM30.1,5.27c-.46-.5-.97-1.19-1.54-1.56-.68-.43-1.59-.66-2.35-.9l.41.38c.76.4,1.46,1.2,2.18,1.61.36.2.9.34,1.3.47ZM27.08,4.15c-.23-.29-.69-.45-1.04-.58-.81-.29-1.66-.42-2.5-.6-.02.11.06.12.12.16.87.63,2.39.7,3.41,1.01ZM15.81,3.02c-1.16.28-2.43.63-3.53,1.1-.45.19-.75.37-1.03.79,1.47-.72,3.21-.97,4.56-1.89ZM18.68,3.33c-.66-.03-1.4-.12-2.06.01-.39.08-.71.32-1.05.49-.07.03-.14-.03-.11.12,1.03-.07,2.03-.32,3.05-.51.07-.01.16,0,.18-.1ZM22.01,3.99c-1.56-.37-3.11-.43-4.66.03.8.06,1.58-.06,2.38-.03.6.02,1.56.24,2.1.1.07-.02.16,0,.18-.1ZM27.79,4.61l-.39-.2-2.53-.46c.2.21.53.33.81.39.56.14,1.37.25,1.95.31.06,0,.17.06.16-.04ZM31.58,8.6c.02-.1-.05-.12-.11-.17-.78-.71-2.34-1.35-3.31-1.92-1.46-.86-2.22-1.52-3.95-1.94-.44-.11-.89-.23-1.34-.22l2.01.72c2.25,1.14,4.36,2.54,6.69,3.52ZM17.14,4.4c-.28,0-.54-.02-.79.1l-1.2.67c.31,0,.62.01.92-.08l1.07-.69ZM15.3,4.51c-.18-.06-.43-.03-.63.01-.5.11-2.62,1.51-3.07,1.9-.05.04-.13,0-.1.13l3.79-2.05ZM33.63,7.27c.08-.08-1.47-1.52-1.61-1.64-.57-.47-1.2-.86-1.87-1.18-.01.09.05.16.1.23.7.95,1.64,1.33,2.6,1.96l.78.63ZM20.47,4.56h-2.43c-.08,0-1.06.54-1.25.59l1.15.08c.79-.21,1.6-.37,2.38-.59.06-.02.17,0,.15-.08ZM25.39,5.89c-.01-.08-.1-.1-.15-.13-.68-.4-2.64-1.06-3.4-.99-.43.04-.92.24-1.36.3l2.26.27,2.65.55ZM13.05,4.86c-1.41.22-2.56,1.13-3.38,2.25l3.38-2.25ZM10.49,5.02c-.08-.07-1.68.69-1.88.81-.9.53-1.72,1.48-2.37,2.29-.04.05-.29.35-.26.38.1.02.12-.05.18-.1.78-.65,1.39-1.3,2.26-1.88.69-.47,1.58-.81,2.06-1.49ZM29.4,6.17c-.26-.27-.54-.68-.91-.81-.45-.16-1.14-.19-1.62-.24.49.37,1.06.69,1.6.98.39.21,1.11.64,1.49.76.03,0,.08.01.08-.02-.22-.21-.43-.44-.64-.66ZM36.49,15.33c.04-.15,0-.58,0-.77s-.06-.6-.14-.78c-.23-.49-1.86-2.85-2.24-3.19-1.1-.99-3.36-1.87-4.72-2.55-1.12-.56-1.96-1.15-3.19-1.52-3.67-1.11-7.38-1.37-11.03-.08-2.89,1.03-5.79,2.32-8.04,4.45-.62.59-.98,1.39-1.31,2.17-.41.95-.78,1.98-.96,3l.75-1.28c.08-.12.18-.26.28-.37.04-.04.26-.3.3-.25,0,.11,0,.21-.01.32-.06.34-.71,1.4-.9,1.81-.64,1.36-1.17,2.73-1.03,4.27.01.02.06-.03.08-.05.07-.13.16-.61.22-.81.13-.42.29-.93.46-1.33.08-.17.21-.58.42-.34l-.92,3.89c0,.73.29,1.41.41,2.12.07.08.09,0,.1-.08.04-.3.02-.66.06-.97s.24-1.46.4-1.65c.06-.07.11-.09.21-.07.08.75-.12,1.49-.16,2.22-.08,1.53.03,2.56.65,3.96.03.06.03.15.12.17-.04-.49-.16-1.02-.15-1.51,0-.07.06-.56.07-.59.05-.09.19.04.23.08.16.74.23,1.49.38,2.23s.2,1.08.65,1.7c.54.74,1.24,1.48,1.84,2.18-.17-.65-.6-1.32-.7-1.98-.1-.61.22-.22.37.04.69,1.13,1.09,2.54,1.95,3.63.57.73,2.74,1.59,3.64,2.09,1.51.84,2.78,1.8,4.42,2.44.3.12,1.17.45,1.45.43.32-.02,1.01-.29,1.34-.41.9-.31,2.29-.77,3.1-1.2.67-.35,1.35-.92,2-1.33,1.44-.9,3.59-1.82,4.41-3.32.22-.41,1.13-2.6,1.32-2.72.05-.03.1-.03.15-.02.07.78-.47,1.43-.66,2.15.25-.3.52-.59.77-.9.21-.25.72-.85.84-1.1.4-.85.42-2.44.75-3.4.06-.18.12-.32.28-.44.03.16.08.32.08.48-.01.66-.25,1.44-.31,2.1,0,.04,0,.08,0,.13.05.07.73-1.2.78-1.3.72-1.69.03-3.98.14-5.74.01-.19.04-.56.26-.31.23.27.26,1.81.36,2.23.1-.02.09-.1.1-.18.11-.67.26-1.69.2-2.35-.11-1.09-.67-2.28-.8-3.35-.02-.14-.08-.6.16-.52s.69,1.93.8,2.25l.1-.94c.18-1.13-.31-1.9-.78-2.86-.24-.5-.6-1.06-.81-1.55-.06-.15-.11-.32-.11-.48.23-.23.79.73.88.89.17.3.4.94.58,1.16.06.07.11.03.13-.02ZM31.81,7.56c-.65-.78-1.04-1.7-2.17-1.87l2.07,2.25c.45.54.89,1.17,1.53,1.49.05.02.14.1.18.02-.52-.65-1.09-1.25-1.62-1.89ZM15.1,5.73c-.81-.09-1.49.36-2.17.73l-1.16.76c.09.02.16-.02.24-.04.77-.23,2.41-.85,3.02-1.33.04-.03.09,0,.06-.12ZM36.03,12.18c-.26-1.07-.59-2.22-1.26-3.12-.48-.65-1.62-1.53-2.31-1.99-.08-.05-.59-.4-.63-.37,1.15,1.59,2.62,2.93,3.66,4.61.15.25.27.52.41.77.04.07,0,.13.13.1ZM9.21,6.86c-.09-.08-1.52.98-1.68,1.11-.77.61-1.69,1.48-2.34,2.22-.46.53-1.02,1.19-1.15,1.89l.51-.74c.87-1.15,2.16-1.84,3.2-2.74.57-.5.95-1.18,1.46-1.74ZM11,7.27c-1.37.45-2.68,1.32-3.38,2.61l1.93-1.53c.5-.34,1.09-.58,1.45-1.08ZM7.26,9.62c-.05-.05-.76.49-.84.56-.27.22-.78.66-.97.92-.36.49-.4,1.28-.64,1.84l.13-.1c.65-1.18,1.77-2,2.32-3.23ZM37.16,13.82c-.1-.92-.02-1.86-.66-2.61.1.63.23,1.27.38,1.89.05.19.1.43.17.6.03.08-.03.14.12.11ZM4.5,12.39c-.1-.02-.12.05-.17.11-.17.19-.6.6-.67.81-.19.59-.13,1.47-.23,2.1.15.03.08-.04.12-.11.46-.94.71-1.89.96-2.91ZM38.13,16.84c.09-.02.11-.13.13-.2.12-.51.14-2.06-.04-2.53l-.56-1.06c.06,1.27.2,2.55.46,3.79ZM5.11,13.57c-.13-.03-.09.04-.13.1-.69.87-.73,1.58-.84,2.64-.06.58-.07,1.18-.1,1.77.07.01.08-.14.09-.19.25-1.45.42-2.94.99-4.31ZM2.55,18.02l.3-1.21.11-2.32c-.09.01-.09.1-.12.16-.22.45-.36.94-.39,1.45-.04.58.08,1.31.01,1.85-.01.11.06.09.09.06ZM37.72,18.58c-.11-1.08-.12-2.23-.57-3.24-.03-.07-.05-.17-.14-.19-.01,1.1.25,2.22.61,3.26.02.07.01.16.11.17ZM38.65,19.66c.1-.02.08-.11.1-.18.15-.56.56-2,.5-2.49-.04-.32-.24-.68-.29-1.01-.1.02-.09.11-.1.18-.12.56-.27,1.54-.31,2.1-.03.47.1.94.1,1.41ZM3.58,20.48c-.01-.18.09-.37.09-.54.03-.78-.13-1.63-.09-2.46,0-.11.17-1.3.08-1.3-.52.98-.46,2.08-.33,3.14.04.3.08.73.16,1.01.01.05.01.16.09.14ZM1.79,21.04c.09-.02.1-.1.1-.18.06-.51-.05-1.12,0-1.64l-.13-1.61c-.1,0-.34,1.65-.34,1.82,0,.5.32,1.1.36,1.61ZM39,22.78c.59-1.43.8-3.02.56-4.56l-.28,1.02c-.2,1.09-.46,2.13-.38,3.25,0,.07,0,.27.1.28ZM37.01,22.37c.09-.02.09-.11.11-.17.39-1.16.46-2.64-.03-3.77-.19,1.3-.25,2.63-.08,3.94ZM2.96,22.73l.19-1.14-.54-2.39c-.15.51-.18.93-.1,1.46l.46,2.07ZM37.98,22.42c.05-.5.38-1.07.41-1.56.02-.37-.14-.88-.21-1.25l-.15.59c-.06.68-.14,1.36-.11,2.04,0,.06-.04.19.05.18ZM1.99,25.13c-.19-1.29.04-2.59-.59-3.79-.11.07-.05.12-.04.19.03,1.08.11,2.48.52,3.48.03.08-.03.14.12.11ZM3.58,24.42c.19-.19.08-.62.1-.9.04-.52.15-1.04.15-1.56-.15.14-.21.43-.27.63-.07.23-.22.73-.23.95-.01.29.2.6.24.88ZM38.34,23.78c.02-.27,0-.59,0-.87,0-.06.1-.22.05-.33-.05,0-.07.05-.09.09-.2.47-.52,1.73-.65,2.27-.06.28-.07.56-.14.84.09.11.08.02.11-.05.26-.57.66-1.34.71-1.95ZM37.47,23.52c.03-.25-.02-.54,0-.79l-1.23,3.35.3-.37c.27-.46.87-1.69.93-2.19ZM2.45,22.78s-.14-.01-.1.08c.06.96.02,2.09.26,3.02.02.07,0,.16.1.18l.07-2.16c-.07-.15-.28-1.07-.33-1.12ZM39.46,23.09c-.13-.03-.09.03-.13.1-.16.29-.43.88-.5,1.19-.15.62-.14,1.4-.19,2.04l.25-.49.57-2.84ZM36.29,24.62l.26-1.48c-.1.02-.08.11-.1.18-.08.27-.16.8-.2,1.08,0,.06-.05.23.04.22ZM4.29,23.55c-.07-.08-.09,0-.1.08-.07.53-.08,1.36.01,1.88.04.2.33.69.44.89.19.35.43.72.67,1.04l-1.02-3.89ZM4.24,28.51c-.39-1.18-.23-2.57-1.02-3.58.07.7-.19,1.64-.03,2.31.06.27.67,1.02.9,1.2.05.04.07.1.15.08ZM36.14,30.1c.4-.37.82-.86,1.12-1.31.58-.91.77-2.25.98-3.29l-1.19,2.32-.91,2.29ZM35.52,28.82c.09-.04.16-.13.23-.21.38-.47.99-1.35,1.15-1.92.08-.27.12-.56.16-.84l-1.25,1.95-.29,1.02ZM7.01,31.23l-1.05-1.79-1.4-2c.17.92.44,1.97,1.1,2.66.21.22.61.59.85.79.06.05.47.37.51.33ZM5.16,30.92c-.27-.97-.95-1.7-1.69-2.35.24.97.94,1.74,1.69,2.35ZM33.68,30.97c.6-.62,1.08-1.26,1.18-2.15l-1.04,1.59-.13.56ZM35.93,29.23c-.1-.02-.12.05-.17.11-.53.54-.93,1.05-1.22,1.75-.04.09-.23.56-.2.6.86-.53,1.15-1.6,1.59-2.46ZM9.02,32.23c-.72-.77-1.38-1.59-2.07-2.39.09.34.28.7.45,1.01.41.75.85,1.47,1.56,1.97.41.3.88.54,1.34.76.11-.08,0-.09-.04-.12-.43-.4-.85-.81-1.25-1.23ZM33.99,33.58c.1.02.12-.05.18-.1.83-.69,1.66-1.7,2.3-2.56l.59-1.02c-1.15,1.14-2.49,2.1-3.07,3.69ZM33.47,30.87l-2.2,2.41c.1.03.14-.03.21-.07.38-.24,1.74-1.55,1.9-1.94.05-.12.06-.27.09-.39ZM5.87,30.99h-.14c.42.98,1.26,1.66,2.05,2.31.35.28.76.62,1.13.87.05.03.2.17.25.13l-1.07-1.41-2.21-1.9ZM4.81,31.28c-.22-.19.04.33.06.37.47.83,1.18,1.43,1.93,1.98l-.72-1.03c-.34-.44-.83-.77-1.2-1.17-.05-.05-.07-.15-.07-.15ZM33.42,32.15l-1.75,1.4c-.77.56-1.66.95-2.2,1.77.78-.14,1.47-.57,2.07-1.08.4-.34.99-.89,1.33-1.28.09-.1.62-.73.54-.82ZM33.68,33.02c-.1-.02-.12.05-.18.1-.45.38-.86.85-1.31,1.23.7-.18,1.09-.77,1.48-1.33ZM11.44,34.83c-.36-.29-1.05-.62-1.48-.85-.08-.04-.5-.29-.55-.25l.36.54c.54.64,1.17,1.22,1.91,1.62.27.15.86.44,1.14.5.1.02.1-.06.07-.09,0,0-.09-.01-.13-.05-.45-.42-.88-1.06-1.33-1.41ZM11.46,36.6c-.96-.87-2.1-1.47-3.17-2.18-.26-.17-.51-.46-.82-.53-.05.04.69.98.77,1.05.31.25,1.05.62,1.43.82.58.31,1.18.6,1.79.84ZM33.83,34.2c-.1-.09-.6.49-.69.56l-.69.92c.11.09.64-.53.74-.61l.64-.87ZM29.48,34.5l-3.02,1.89c.46-.22,1.11-.25,1.55-.47.28-.14,1.14-.98,1.37-1.24.05-.06.12-.08.1-.18ZM32.6,34.66c-.98.4-1.94.9-2.61,1.74.65-.24,1.39-.4,1.9-.89.24-.24.48-.59.72-.85ZM16.53,37.47c-.58-.44-1.23-.82-1.86-1.19s-1.31-.77-1.98-1.01c.37.47.83.9,1.31,1.28.16.13.41.35.59.43.54.25,1.36.3,1.94.49ZM12.33,37.57l-3.79-2c-.06.06.21.29.25.33.89.82,2.42,1.24,3.53,1.66ZM25.8,38.29c1.28-.38,2.49-1.15,3.51-2,.07-.06.56-.44.49-.51-.43.22-.94.36-1.35.62s-.86.7-1.3,1.01c-.4.28-.81.48-1.2.74-.05.04-.13.07-.14.14ZM31.17,36.6c-.89.28-1.79.57-2.63.98-.32.16-1.02.52-1.28.72-.06.04-.11.05-.09.14.22-.08.45-.03.68-.06,1.25-.19,2.33-1.04,3.31-1.78ZM15.4,38.14c-.97-.65-2.08-1.03-3.17-1.43.47.31,1,.8,1.5,1.03.36.17,1.16.41,1.56.49.11.02.13.03.12-.09ZM26.97,36.81l-5.12,1.74c.91,0,2.05-.03,2.92-.33.68-.24,1.5-.87,2.1-1.28.02-.02.2-.04.1-.13ZM14.99,39.26c-.58-.17-1.05-.63-1.6-.88-.79-.36-1.7-.53-2.49-.91.65.51,1.34.99,2.06,1.39.58.12,1.24.36,1.82.44.06,0,.22.06.22-.04ZM23.44,39.11c-.94,0-1.85.03-2.78-.11-1.55-.23-3.07-.85-4.64-1.07.85.79,2.09.95,3.21,1.12,1.32.2,2.55.27,3.88.15.07,0,.31-.03.34-.1ZM17.66,39.42c-.07-.13-.27-.18-.41-.23-.66-.22-1.47-.33-2.15-.49l1.22.75c.48.18.86.08,1.34-.04ZM27.13,38.96c-.21-.05-.46.05-.64.05-.26,0-.57-.12-.86-.04l-3.37,1.27c1.45-.15,2.96-.44,4.31-.98.18-.07.43-.13.55-.29ZM21.6,39.83c-1.27,0-2.49-.45-3.74.03,1.16.27,2.44.65,3.58.1.06-.03.14-.05.15-.13ZM17.14,40.34c-.71-.35-1.5-.42-2.25-.61.01.09.1.09.17.12.47.2,1.42.49,1.91.54.06,0,.18.05.17-.04ZM18.94,40.8c-.02.1.03.1.09.14.12.1.94.52,1.07.52l1.1-.69c-.05-.07-.1-.07-.18-.08-.68-.07-1.39.16-2.08.11Z"/>
      <g>
        <path class="cls-1" d="M32.52,12.47s.05.1.06.15c.08.6.03,1.28.05,1.89.16,5.68-.05,11.17-3.82,15.73-1.78,2.16-4.4,4.14-6.93,5.35-.26.12-1.09.53-1.33.52-.2,0-1.02-.39-1.25-.5-4.94-2.32-8.94-6.47-10.21-11.88-.75-3.21-.84-7.51-.57-10.79.04-.5.19-.51.6-.74,2.54-1.44,6.04-2.67,8.87-3.41.64-.17,1.96-.56,2.57-.57.37,0,1.14.21,1.54.3,3.16.7,7.03,2,9.85,3.59.11.06.53.3.58.36ZM9.72,13.25c-.15,5.31-.36,10.97,2.9,15.47,1.95,2.69,4.91,4.82,7.93,6.15,3.35-1.42,6.58-3.86,8.5-7,2.23-3.63,2.44-8.1,2.37-12.26-.01-.79.02-1.58-.07-2.37-2.67-1.39-5.56-2.49-8.48-3.25-.54-.14-1.85-.52-2.33-.52-.56,0-2,.45-2.61.61-2.83.79-5.58,1.89-8.22,3.17Z"/>
        <path class="cls-1" d="M25.49,20.88c-.1-.11-.08.12-.08.16.08,1.43.08,2.86.12,4.28.01.53.11,1.12.05,1.66-.05.46-.78.39-.87.04-.1-.42-.12-1.19-.15-1.65-.04-.63-.02-1.28-.09-1.91l-.45,1.37c-.08.57-.04,1.17-.1,1.74-.06.47-.08.8-.66.71-.46-.07-.26-.69-.25-.98.01-.51,0-1.1.05-1.61.08-.73.63-1.72.64-2.35,0-.4-.06-1.01-.09-1.42,0-.05-.05-.35-.07-.35-.43.94-1.28,1.18-2.23,1.34-.09.63-.17,1.27-.24,1.9-.11,1.05-.13,2.18-.28,3.21-.02.16-.09.44-.32.28-.07-.05-.05-.4-.04-.51.06-1.52.38-3.14.42-4.65,0-.27-.14-.53.04-.78.17-.23,1.05-.39,1.33-.6.19-.14.65-.95.9-1.22.49-.52,1.48-.97,2.14-.53.74.51,1.23,2.78,1.16,3.63-.04.45-.36.57-.63.22l-.29-1.99Z"/>
        <path class="cls-1" d="M29.44,18.29s-.18.07-.24.06l-8.66-5.6c-2.88,1.8-5.7,3.7-8.56,5.55-.43.21-.43-.37-.39-.66.03-.21.36-.36.53-.48,2.7-1.85,5.54-3.52,8.24-5.37l.17-.05,8.84,5.71c.18.07.14.78.06.86Z"/>
        <path class="cls-1" d="M18.17,27.52c.74,0,1.49.07,2.24.03.09,0,.13.07.12.16-.74,1.49-1.55,2.94-2.4,4.37-.07.12-.37.67-.47.68-.15,0-1.55-1.05-1.77-1.22l-1.11-.96,2.36-2.97c.31-.05.71-.07,1.03-.08Z"/>
        <path class="cls-1" d="M16.2,21.84c.42.13.89,0,1.31,0,.74-.01.67.69.32.69h-1.59v.74h1.59s.31.18.34.26l1.06,2.2c.15.15.52-.03.59.29.15.66-.73.79-1.21.7-.08-.01-.12-.06-.16-.11l-1.01-2.17c-.13-.08-2,.02-2.37-.03-.33-.04-.61-.28-.69-.6-.09-.38-.09-2.42-.03-2.87.09-.77,1.24-1.02,1.68-.34.06.09.16.43.16.53v.71Z"/>
        <path class="cls-1" d="M13.88,22.29s-.41.18-.51.25c-1.6,1.04-1.25,3.68.66,4.16.98.25,2.11-.26,2.57-1.16.14-.26.15-.81.55-.62.42.2-.16,1.17-.36,1.41-1.81,2.26-5.3.79-5.06-2.11.07-.89.9-2.27,1.87-2.37.29-.03.44.26.28.45Z"/>
        <path class="cls-1" d="M26.73,26.17c.1-.36.31-.58.65-.72l.18-6.71c-.02-.22.24-.36.37-.19.13.16,0,1.09,0,1.34-.05,1.77-.11,3.53-.13,5.29,0,.14-.1.23.02.35.08.07.19.08.28.18.03.04.21.41.21.44-.01.15-.6.02-.71.02-.28,0-.57.01-.85,0Z"/>
        <path class="cls-1" d="M15.5,18.04c1.19-.12,1.42,1.76.26,1.92-1.38.19-1.52-1.79-.26-1.92Z"/>
        <path class="cls-1" d="M23.64,16.79c1.61-.3,1.56,2.12.09,1.86-1.01-.17-1-1.7-.09-1.86Z"/>
        <path class="cls-1" d="M28.62,27.36c-.48.07-.39-.11-.53-.46-.1,0,.11.42.07.46h-.41s-.02-.41-.02-.41c-.04,0-.05.39-.07.41-.02.01-.37.01-.41-.02-.1-.06.05-.33,0-.44-.1.03-.11.38-.14.41-.04.03-.33-.01-.41,0l.11-.51c-.18.34-.1.63-.62.48l.51-.97c.26-.02,1.5-.08,1.63.07.07.08.23.81.3.97Z"/>
      </g>
    </g>
    <g>
      <path class="cls-1" d="M50.38,22.03c-1.14-.37-2.12-.9-2.96-1.57l1.83-2.56c1.33,1.05,2.89,1.57,4.66,1.57.89,0,1.59-.15,2.12-.45.52-.3.78-.71.78-1.22,0-.49-.24-.87-.73-1.14-.49-.27-1.26-.47-2.32-.58-2.05-.23-3.55-.71-4.5-1.44-.95-.73-1.43-1.78-1.43-3.14,0-.92.26-1.73.77-2.43.52-.7,1.24-1.25,2.17-1.63s2.01-.58,3.22-.58c1.05,0,2.07.15,3.06.45,1,.3,1.87.72,2.63,1.27l-1.66,2.47c-1.17-.82-2.47-1.23-3.89-1.23-.87,0-1.57.14-2.1.43-.52.29-.78.67-.78,1.16s.23.84.68,1.1c.45.26,1.21.45,2.27.58,2.03.23,3.55.73,4.56,1.52s1.5,1.85,1.5,3.21c0,.95-.27,1.78-.79,2.5-.53.72-1.28,1.28-2.24,1.68s-2.06.59-3.31.59-2.42-.19-3.56-.56Z"/>
      <path class="cls-1" d="M66.35,19.28h8.3v2.97h-11.71V7.2h11.48v2.94h-8.06v3.05h7.63v2.84h-7.63v3.24Z"/>
      <path class="cls-1" d="M87.59,7.2h3.5v15.04h-3.16l-6.81-9.31.04,4.06v5.24h-3.5V7.2h3.16l6.81,9.35-.04-4.02v-5.33Z"/>
      <path class="cls-1" d="M94.76,7.2h3.52v15.04h-3.52V7.2Z"/>
      <path class="cls-1" d="M104.96,21.63c-1.22-.65-2.17-1.57-2.84-2.76-.67-1.19-1-2.57-1-4.15s.33-2.96,1-4.15c.67-1.19,1.61-2.11,2.84-2.76,1.23-.65,2.65-.98,4.27-.98s3.04.33,4.27.98c1.22.65,2.17,1.57,2.84,2.76.67,1.19,1,2.57,1,4.15s-.33,2.96-1,4.15c-.67,1.19-1.61,2.11-2.84,2.76-1.23.65-2.65.98-4.27.98s-3.04-.33-4.27-.98ZM111.62,18.88c.7-.39,1.23-.95,1.61-1.67.38-.72.57-1.55.57-2.49s-.19-1.78-.57-2.49c-.38-.72-.92-1.27-1.61-1.67s-1.49-.59-2.4-.59-1.7.2-2.38.59-1.22.95-1.6,1.67c-.38.72-.57,1.55-.57,2.49s.19,1.78.57,2.49c.38.72.91,1.27,1.6,1.67s1.48.59,2.38.59,1.7-.2,2.4-.59Z"/>
      <path class="cls-1" d="M125.71,17.28h-2.04v4.96h-3.52V7.2h7.33c1.09,0,2.04.21,2.86.63.82.42,1.45,1.02,1.89,1.79.44.77.67,1.66.67,2.67,0,1.15-.3,2.13-.89,2.94-.59.82-1.44,1.4-2.53,1.74l4.25,5.27h-4.19l-3.83-4.96ZM128.79,10.77c-.41-.37-.99-.56-1.73-.56h-3.42v4.23h3.42c.76,0,1.34-.18,1.74-.55.4-.37.6-.88.6-1.56s-.2-1.2-.61-1.57Z"/>
      <path class="cls-1" d="M151.45,7.2h3.5v15.04h-3.5v-6.04h-6.38v6.04h-3.52V7.2h3.52v5.82h6.38v-5.82Z"/>
      <path class="cls-1" d="M161.63,21.63c-1.22-.65-2.17-1.57-2.84-2.76-.67-1.19-1-2.57-1-4.15s.33-2.96,1-4.15c.67-1.19,1.61-2.11,2.84-2.76,1.23-.65,2.65-.98,4.27-.98s3.04.33,4.27.98c1.22.65,2.17,1.57,2.84,2.76.67,1.19,1,2.57,1,4.15s-.33,2.96-1,4.15c-.67,1.19-1.61,2.11-2.84,2.76-1.23.65-2.65.98-4.27.98s-3.04-.33-4.27-.98ZM168.29,18.88c.7-.39,1.23-.95,1.61-1.67.38-.72.57-1.55.57-2.49s-.19-1.78-.57-2.49c-.38-.72-.92-1.27-1.61-1.67s-1.49-.59-2.4-.59-1.7.2-2.38.59-1.22.95-1.6,1.67c-.38.72-.57,1.55-.57,2.49s.19,1.78.57,2.49c.38.72.91,1.27,1.6,1.67s1.48.59,2.38.59,1.7-.2,2.4-.59Z"/>
      <path class="cls-1" d="M190.24,7.2h3.16v15.04h-3.5v-9.41l-4.43,5.42h-.69l-4.47-5.44v9.43h-3.5V7.2h3.16l5.14,6.4,5.14-6.4Z"/>
      <path class="cls-1" d="M200.49,19.28h8.3v2.97h-11.71V7.2h11.48v2.94h-8.06v3.05h7.63v2.84h-7.63v3.24Z"/>
      <path class="cls-1" d="M49.31,35.24c-.8-.26-1.5-.63-2.09-1.11l1.29-1.81c.94.74,2.04,1.11,3.29,1.11.63,0,1.12-.11,1.49-.32s.55-.5.55-.86c0-.34-.17-.61-.52-.8-.34-.19-.89-.33-1.64-.41-1.45-.16-2.5-.5-3.18-1.02s-1.01-1.25-1.01-2.21c0-.65.18-1.22.55-1.71.36-.5.88-.88,1.53-1.15.66-.27,1.42-.41,2.28-.41.74,0,1.46.11,2.16.32s1.32.51,1.86.9l-1.17,1.74c-.83-.58-1.75-.86-2.75-.86-.62,0-1.11.1-1.48.3-.37.2-.55.48-.55.82s.16.59.48.77c.32.18.85.32,1.6.41,1.44.16,2.51.52,3.22,1.07s1.06,1.31,1.06,2.27c0,.67-.19,1.26-.56,1.77-.37.51-.9.91-1.58,1.18-.68.28-1.46.42-2.34.42s-1.71-.13-2.51-.39Z"/>
      <path class="cls-1" d="M60.3,33.3h5.86v2.09h-8.27v-10.62h8.1v2.08h-5.69v2.15h5.39v2h-5.39v2.29Z"/>
      <path class="cls-1" d="M71.92,31.89h-1.44v3.5h-2.49v-10.62h5.17c.77,0,1.44.15,2.02.45.58.3,1.02.72,1.33,1.27.31.55.47,1.17.47,1.88,0,.81-.21,1.5-.63,2.08-.42.58-1.01.99-1.78,1.23l3,3.72h-2.96l-2.7-3.5ZM74.09,27.29c-.29-.26-.7-.39-1.22-.39h-2.41v2.99h2.41c.54,0,.95-.13,1.23-.39.28-.26.42-.62.42-1.1s-.14-.84-.43-1.11Z"/>
      <path class="cls-1" d="M86.13,24.77h2.75l-4.37,10.62h-2.62l-4.37-10.62h2.75l1.43,3.61,1.5,4.13,1.53-4.13,1.41-3.61Z"/>
      <path class="cls-1" d="M89.95,24.77h2.49v10.62h-2.49v-10.62Z"/>
      <path class="cls-1" d="M96.86,34.94c-.86-.46-1.53-1.12-2-1.96-.47-.84-.71-1.81-.71-2.9s.24-2.06.72-2.9c.48-.84,1.15-1.5,2.01-1.96.86-.46,1.84-.69,2.94-.69,1.57,0,2.91.55,4.04,1.65l-1.53,1.53c-.68-.65-1.49-.97-2.44-.97-.64,0-1.2.14-1.69.42-.49.28-.87.67-1.14,1.18-.27.51-.4,1.09-.4,1.74s.13,1.24.4,1.74c.27.51.65.9,1.14,1.18.49.28,1.05.42,1.69.42.51,0,.99-.09,1.46-.27s.87-.44,1.21-.79l1.46,1.62c-1.14,1.1-2.52,1.65-4.14,1.65-1.14,0-2.15-.23-3.01-.7Z"/>
      <path class="cls-1" d="M107.85,33.3h5.86v2.09h-8.27v-10.62h8.1v2.08h-5.69v2.15h5.39v2h-5.39v2.29Z"/>
      <path class="cls-1" d="M116.96,35.24c-.8-.26-1.5-.63-2.09-1.11l1.29-1.81c.94.74,2.04,1.11,3.29,1.11.63,0,1.12-.11,1.49-.32s.55-.5.55-.86c0-.34-.17-.61-.52-.8-.34-.19-.89-.33-1.64-.41-1.45-.16-2.5-.5-3.18-1.02s-1.01-1.25-1.01-2.21c0-.65.18-1.22.55-1.71.36-.5.88-.88,1.53-1.15.66-.27,1.42-.41,2.28-.41.74,0,1.46.11,2.16.32s1.32.51,1.86.9l-1.17,1.74c-.83-.58-1.75-.86-2.75-.86-.62,0-1.11.1-1.48.3-.37.2-.55.48-.55.82s.16.59.48.77c.32.18.85.32,1.6.41,1.44.16,2.51.52,3.22,1.07s1.06,1.31,1.06,2.27c0,.67-.19,1.26-.56,1.77-.37.51-.9.91-1.58,1.18-.68.28-1.46.42-2.34.42s-1.71-.13-2.51-.39Z"/>
      <path class="cls-1" d="M136.1,24.77h2.47v10.62h-2.23l-4.81-6.57.03,2.87v3.7h-2.47v-10.62h2.23l4.81,6.6-.03-2.84v-3.76Z"/>
      <path class="cls-1" d="M143.29,33.3h5.86v2.09h-8.27v-10.62h8.1v2.08h-5.69v2.15h5.39v2h-5.39v2.29Z"/>
      <path class="cls-1" d="M158.88,24.77v2.17h-3.25v8.45h-2.49v-8.45h-3.23v-2.17h8.96Z"/>
      <path class="cls-1" d="M173.05,24.77h2.72l-3.72,10.62h-2.35l-1-2.96-1.21-3.56-1.18,3.56-1.02,2.96h-2.31l-3.73-10.62h2.71l1.33,4.23.87,3.02,2.41-7.25h1.79l2.47,7.3.93-3.06,1.29-4.23Z"/>
      <path class="cls-1" d="M178.88,34.96c-.86-.46-1.53-1.11-2-1.95-.47-.84-.71-1.81-.71-2.93s.24-2.09.71-2.93c.47-.84,1.14-1.49,2-1.95.86-.46,1.87-.69,3.01-.69s2.15.23,3.01.69c.86.46,1.53,1.11,2,1.95.47.84.71,1.81.71,2.93s-.24,2.09-.71,2.93c-.47.84-1.14,1.49-2,1.95-.87.46-1.87.69-3.01.69s-2.15-.23-3.01-.69ZM183.58,33.02c.49-.28.87-.67,1.14-1.18.27-.51.4-1.09.4-1.76s-.13-1.25-.4-1.76c-.27-.51-.65-.9-1.14-1.18-.49-.28-1.05-.42-1.69-.42s-1.2.14-1.68.42c-.49.28-.86.67-1.13,1.18-.27.51-.4,1.09-.4,1.76s.13,1.25.4,1.76c.27.51.64.9,1.13,1.18.49.28,1.05.42,1.68.42s1.2-.14,1.69-.42Z"/>
      <path class="cls-1" d="M193.24,31.89h-1.44v3.5h-2.49v-10.62h5.17c.77,0,1.44.15,2.02.45.58.3,1.02.72,1.33,1.27.31.55.47,1.17.47,1.88,0,.81-.21,1.5-.63,2.08-.42.58-1.01.99-1.78,1.23l3,3.72h-2.96l-2.7-3.5ZM195.42,27.29c-.29-.26-.7-.39-1.22-.39h-2.41v2.99h2.41c.54,0,.95-.13,1.23-.39.28-.26.42-.62.42-1.1s-.14-.84-.43-1.11Z"/>
      <path class="cls-1" d="M209.73,35.39h-3.23l-3.73-4.22v4.22h-2.47v-10.62h2.47v4.16l3.49-4.16h3.06l-4.47,5.2,4.88,5.42Z"/>
    </g>
  </g>
</svg>